<svg xmlns="http://www.w3.org/2000/svg" viewBox="0 0 131.73 82.26"><defs><style>.cls-1{fill:#999;opacity:0.17;}.cls-2{fill:#e63231;}.cls-3{fill:#d43231;}</style></defs><title>icon_4</title><g id="Layer_2" data-name="Layer 2"><g id="Layer_8" data-name="Layer 8"><path class="cls-1" d="M98.3,68.76c0,3.39-2.94,6.49-7.78,8.87-5.83,2.83-14.4,4.63-24,4.63s-18.12-1.8-23.95-4.63c-4.84-2.38-7.78-5.48-7.78-8.87s2.94-6.49,7.78-8.87c5.83-2.83,14.4-4.63,23.95-4.63s18.12,1.8,24,4.63C95.36,62.27,98.3,65.37,98.3,68.76Z"/><circle class="cls-2" cx="111.87" cy="5.13" r="5.13"/><circle class="cls-2" cx="66.57" cy="36.09" r="33.88"/><polyline class="cls-2" points="90.06 14.39 90.97 18.23 87.96 15.61"/><polyline class="cls-2" points="85.69 17.93 85.38 22.73 88.44 24.74 86.91 18.23"/><polyline class="cls-2" points="91.45 21.03 89.75 25.35 94.6 25.79 92.18 21.03"/><path class="cls-1" d="M115.85,52.37c0,.7-.61,1.34-1.61,1.83a13.29,13.29,0,0,1-9.92,0c-1-.49-1.61-1.13-1.61-1.83s.6-1.35,1.61-1.84a13.29,13.29,0,0,1,9.92,0C115.24,51,115.85,51.66,115.85,52.37Z"/><path class="cls-3" d="M60,28h0v0Z"/><path class="cls-3" d="M58.39,27.7a.06.06,0,0,1,0,0l0,0Z"/><path class="cls-3" d="M73.08,68.9h0Z"/><path class="cls-3" d="M79.76,16.49h0Z"/><path class="cls-3" d="M88.6,51.24h0Z"/><path class="cls-3" d="M121.1,5.62A50.06,50.06,0,0,1,126.23,8c5.16,3.16,6.51,7.81,3.86,13.3a37.63,37.63,0,0,1-4.56,6.36,55,55,0,0,1-8.34,7.66,100.14,100.14,0,0,1-16.4,10c-.43.17-.4,0-.28-.33.11-.48.19-1,.33-1.43a25.09,25.09,0,0,0,1-10.18,34.4,34.4,0,0,0-9.86-21.1,34.94,34.94,0,0,0-9-6.18A29.17,29.17,0,0,0,69.88,2.81l.82.42c-.39.32-.86,0-1.25.2-.08.23.15.25.27.32.3.19.93.2.59.76-.22.36-.74.29-1.07,0a2.18,2.18,0,0,0-2.12-.17c-.18,0-.89.39-.43.67.28.17.22,1.13,1.08.54,1.12-.77,1.12.59,1.57,1.07,1.38-.19,1.57,0,1.55,1.36,0,.36.42.13.6.28l.19.18a.42.42,0,0,1,.09.24c.19.26.45.53,0,.77l-.24.07c0,.38-.89.93.23,1.09.33.05.23.43.09.52-1.13.68-.66,2.46-2,2.95a1.61,1.61,0,0,1-.45,1.05c1.11-.11,1.47.27,1.32,1.43,0,.25-.21.44-.14.75.14.61.12.54-.47.42s-1.15.53-1.7.84c1.15.21,1.17.27.84,2.15-.73-.72-2-.75-2-2.11.1-.27.39-.49.25-.83-.71.47-1.35.34-2.06-.4.81,1.79-.34,1.6-1.27,1.62a2.06,2.06,0,0,1-.26,0l-.42.09a1,1,0,0,1-.85-.12c-.27-.22-.45-.42.06-.57l.91-.19L62.4,18a.25.25,0,0,1-.33-.21.16.16,0,0,1,0-.2l-.26-.4a2.21,2.21,0,0,0-1.51,1.39.5.5,0,0,1,.59.4c0,.12-.25.33-.43.4a5.34,5.34,0,0,1-.9.2l.68.09c.46.17.34.35,0,.53.07.25.34.49.46.33,1.13-1.44,2.77-1,4.24-1.21.57-.07,1.11.06.81.87,0,.29.07.58.11.87.71-1.47.69-1.43,2-.6a7.51,7.51,0,0,1,1.89,1.88,21.53,21.53,0,0,1-4.19,2.73c-.81.49-1.34.67-1.13-.84-.31,1-.8,1-1.39.44-.06.6.59,1.26-.51,1.39-2.61.3-3.24.08-3.34-1.45-.37.23-.68,1.07-1.15.17,0,.16,0,.33,0,.49a1.52,1.52,0,0,0,.31,2.14s0,.14,0,.22c.69-.92,1.06.08,1.57.29-.51-1.59-.43-1.74,1.32-1.52.66.09,2-.52,1.75,1.19a.39.39,0,0,0,.71.17c.53-1,1-.34,1.6-.08,0,0,0-.1,0-.13-1-1.36-1-1.36.67-2,.23-.47.72-.58,1.12-.83a.64.64,0,0,1,1,.35c.27.75-.38.56-.75.63,1.41.81-.15,1.34-.19,2,2-1.22,2-1.22,2.64,1.12.16.55.3,1.1.46,1.66s0,.83-.65.65l-.18.2c.7,1.2-.9.57-1,1.18l1.46,0a.58.58,0,0,1,.62.57c0,.53-.4.29-.68.27-.46,0-1-.32-1.34.19l.77.16c1,.2.88.62.23,1.16l.15.16c.7-.18,1.22-.17.77.78A5.43,5.43,0,0,0,70,37.43a1.51,1.51,0,0,1-1.4,1.37,8.22,8.22,0,0,0-1.56.36c-1.27.47-2,.13-2.21-1.26l-.39.23c0,.18,0,.36.07.54s0,.27-.22.24l-.52,0c.06.56-.31.64-.79.64,1.6.39,1.64.5.69,1.74-.41.52-.89,1-1.26,1.54-.63,1-1.1.79-1.54-.14v.78c0,.21-.1.3-.3.29H60c.33.72.38,1.72,1.58,1.56,1-1,1-2.53,2.14-3.52.87-.76,1.45-1.7,2.69-.72a2.15,2.15,0,0,1,2.38-2,.33.33,0,0,1,.28.37c0,.37-.11.73-.54.79a13.6,13.6,0,0,1-1.45,0c1.52.81,1.53.91.39,1.89l-.09.53.09.41A.42.42,0,0,1,68,43c.11-.39-.09-1,.53-1,.42,0,.16.52.4.73.37-.31,0-1.25.94-1.08-.14-.8.3-1.08,1-1.12.27,0,.6,0,.54.35-.09.6,0,1.41-1,1.29.7.57.34,1.21,0,1.76-.4.71-.69,0-1-.16s-.38-1-.92-.25l.56,1c0,.18-.07.24-.23.21l-.81,0v.31l.79.08c.57-.09.84.16.82.73,1.07.18.3,1.44,1,1.81a2.42,2.42,0,0,1,0-.66c.16-.59-.37-1.53.54-1.71s2.1-.73,3,.37c.11-.47.33-.77.88-.67.17,0,.34.06.37.27.07.61-.67.45-.82.85,0,.17,0,.35,0,.53.29.2.85-.06.93.52s-.35.6-.63.76c-.6.32-1,1-1.86.86-.41.39-1,.62-1.06,1.32-.44-.18-.79.28-1.26.14a2.93,2.93,0,0,1-.1-1.39c-.37.36-.19.84-.27,1.26s-.13.66-.5.68-.4-.39-.48-.66c-.17-.63.11-1.34-.37-1.9l-.15.85-.05.29c0,.38,0,.77-.07,1.12-.8.11-1.11-.85-1.85-.65.21.63,1.07.82,1,1.61.27.78-.61,1-.76,1.62.59.24.89-.55,1.55-.38.06.67.13,1.37.19,2.06a.37.37,0,0,0,.36-.32c.38-1.87.38-1.87,1.91-1.4a26.52,26.52,0,0,1,3.53,1.57c.59.24.55.55.16,1a4,4,0,0,1-2.33,1.19c-.52.11-.85-.17-.83-.75-.07,1-.74,1.44-1.67,1.6-1.12.2-2.14.84-3.33.78-.56,0-1.46.23-.69-.87.18-.27-.16-.46-.27-.69-1.18-.84-1.18-1.75-.17-2.73-.42-.14-1,.81-1.27-.15s-.54-2,.84-2.47c-.42,0-.87.22-.86-.69a9.14,9.14,0,0,1,.18-2.66c.89.1,1.1,1.11,1.91,1.17,0-.16,0-.39-.16-.46-1.31-.83-1.81-1.87-.91-3.31-1.08,1-1.08,1-2-.16.69,1.64.05,1.95-1.15,1.73l-.5.28c2.36.07,2.74.51,2.42,2.89-.06.44-.08,1-.78.49-.49-.37-.64.9-1.22.27l.07.4c.53.73,1.59,1.13,1.46,2.29,0,.1,0,.2,0,.29L63.42,54l-.31.06c.34.63,0,1.39.37,2,1.1.41,1.12,1.26.49,2.22a3.55,3.55,0,0,1-1.17,1.32,1,1,0,0,1-1.21,0c-.26.15-.29.69-.78.47a10.56,10.56,0,0,0-1.21.49c-.21.11-.55-.09-.63.28.55-.15.26.73.81.63a1.35,1.35,0,0,1,1.7,1.16c-.14-.66,1.29-1.08.19-1.84-.17-.12.11-.36.35-.43.63-.17,1.26-.37,1.91-.53a8.76,8.76,0,0,0,2.5-.6c1-.57,1.35.47,1.65,1.06s-.48.52-.77.59c-.93.25-1.94-.26-2.78.2a15.62,15.62,0,0,0,1.63.13c3.08-.07,3.08-.08,4.35,3-1-1-2,.36-3-.08-.25-.1-.76.37-1.14.6a3.41,3.41,0,0,1-3.39.34c-1.25-.57-.83.56-1.11,1.07.65,0,1.26-.41,1.82.12a.57.57,0,0,0,.5-.06c1.65-1.36,3.38,0,5.06-.14a.65.65,0,0,1,.67.8c-.49.34-.86.9-1.59.76-.29-.06-.55,0-.58.36s.22.45.51.46c.48,0,1,0,1,.81-1.43-.86-3-.28-4.34-.7a.43.43,0,0,0-.32.16.33.33,0,0,0,.13.46,1.79,1.79,0,0,0,.72.3c2.55,0,5.13.37,7.63-.48a13.37,13.37,0,0,0-3.58.37A1.64,1.64,0,0,1,71,68.35c1.17-.18,2.36-.33,3.54-.48.55-.08.56-.08.81.61.08.22.24.23.41.21a9.32,9.32,0,0,0,3-.56c2.58-1.27,5.21-2.45,7.73-3.85a22,22,0,0,0,3.08-2.52c.33-.28.58-.7,1.11-.66.24-1,1.25-1.27,1.83-2,3.07-3.76,6.34-7.38,7.4-12.34.13-.62.59-.84,1.07-1.08a109,109,0,0,0,23.9-16.22,2.22,2.22,0,0,0,.66-1,.61.61,0,0,1,0-.11.61.61,0,0,0,0,.11,23.09,23.09,0,0,0,5.07-7.26C133.91,13.73,129.65,6.71,121.1,5.62ZM98.47,29.25c.34,0,.59.14.57.57s-.12.77-.56.7S98,30,98,29.69,98.18,29.24,98.47,29.25Zm-1.94-8.71a3.72,3.72,0,0,1-1.09-2.24A2.63,2.63,0,0,1,96.53,20.54Zm-.26,7.27c0,.74-.66.35-1,.45a3.64,3.64,0,0,1-.67,0c-.67-.11-2,.34-1.92-.94.08-.9,1.3-.49,2.06-.39.22,0,.44,0,.66.07C95.84,27.07,96.29,27.26,96.27,27.81Zm-1.23-6c1.33.39,1.12,1.19,1,2C95.75,23.25,95.47,22.69,95,21.84Zm-.47-2.93c.39,0,.41.34.49.62s0,.37-.28.32-.57-.25-.53-.61A.45.45,0,0,1,94.57,18.91Zm-1.11-2.29c.25.52,1.22.67.82,1.49-.12.24-.57.44-.79.24C93,17.88,93.19,17.26,93.46,16.62Zm-.64,6.76c.06-.52.1-1.05.17-1.91a14.14,14.14,0,0,1,2.49,4.32c-.13.11-.19.21-.25.21C92.21,26,92.5,26.6,92.82,23.38Zm1.4,6.48c.19-.26-.52-.89.31-.84.6,0,1.39-.17,1.71.44a1.44,1.44,0,0,1-.39,1.45c-.19.23-.37-.05-.55-.18-.37-.27-.47-.88-1.08-.87-.26.37.09.57.25.79,1.14,1.67,1.14,1.66-.37,3.53-.52-1.73-1-3.33-1.49-4.94C93.45,29,93.55,30.05,94.22,29.86Zm.91,10.26c1.25,1.75,1.18,2.21-.62,3.59-.19.23-.41.44-.59.68a.75.75,0,0,1-.84.18c-.39-.09-.38-.43-.31-.75l.58-2.54c.63.23.07,1.19.89,1.14-.14-.73-.28-1.46-.44-2.19s0-1.34,1-1C94.56,39.65,95,39.86,95.13,40.12Zm-.06,9.23c-.51.26-1,.59-1.49.87-.26.14-.61.37-.81,0s.13-.55.37-.77.81-.12.39-.82a1,1,0,0,1,.82-1c.33-.08.82-.18.87.29S95.9,48.92,95.07,49.35Zm.16.9a5.83,5.83,0,0,1-1.6,2.49C92.79,51.13,93,50.84,95.23,50.25ZM89,54.63c-.2.54-.28,1.25-.91,1.46a.56.56,0,0,1-.76-.61,1.38,1.38,0,0,1-1.54-1.14c0-.76.69-1.14,1.44-1.3s1.52-.37,2.41-.59c-.09.95-.75,1.29-1.2,1.77C88.66,54.25,89.13,54.13,89,54.63Zm-8,5.26.27.27c.78.66.19,1.28-.17,1.75a3.76,3.76,0,0,1-2,1c-.17.06-.4-.09-.61-.15.31-.88-1.31-1.12-.72-2.15a.61.61,0,0,0-.32-.75,2.21,2.21,0,0,1-.74-2.38,2.35,2.35,0,0,1,2.82-.4c.2.18.37.38.57.56s.89.49.81,1-.78.27-1.14.48C79.94,59.69,81,58.86,80.93,59.89ZM73.12,37c-.61.23-.61-.36-.76-.67a2.83,2.83,0,0,1-.14-.78l0-.16.14.07.8.29c-.45-1.43-.45-1.44,1.24-1.63.6-.07,1.2-.36,1.83-.06.2.68-.92.74-.66,1.43-.77,0-1.33.79-2.16.51C73.5,36.38,73.65,36.8,73.12,37Zm-2-12.43c.15-.93.35-1.46,1.38-.85a.47.47,0,0,0,.59,0c0,.7.75.72,1.11,1.09s1.08.54.91,1-.93.22-1.42.22-1.05-.18-1.58-.17C71.1,25.9,71,25.47,71.11,24.56Zm.84-6c.47,0,1,0,1.42.05a.74.74,0,0,1,.91.17,1.7,1.7,0,0,1,.39,0c.48.12,1.23-.16,1.34.51s-.65.6-1.05.83-1.09.56-1.65.82c-1.41.66-1.57.58-2.12-.95l-.13-.34C70.83,18.88,71.13,18.54,72,18.59Zm2.25,5.16c-.39.3-.74-.1-1.11-.06-.14-.16-.27-.33-.42-.47-.92-.79-.86-1,.4-1.47l2.76-1.27c.43-.21.73-.22.82.38a9.37,9.37,0,0,1,0,3.54c-.25,1.06-.78,1-1.46.41C74.85,24.48,74.54,24.1,74.2,23.75Zm2.45,4.59a5.18,5.18,0,0,1,.43,2.71c0,2.36.34,2.44-2.3,1.82L74,32.72c-.8-.11-1.14-.43-.6-1.2.76-1.09,1.51-2.19,2.25-3.29C76.06,27.61,76.31,27.72,76.65,28.34ZM74.25,9.19c.62-.74,1.6-.85,2.31-1.46.32-.27.7.14.77.49.1.51.3.8.85.77.46,1.5.44,1.54-1.18,1.37-.84-.09-1.67-.22-2.5-.33S73.86,9.65,74.25,9.19ZM73,9.19a.6.6,0,0,1-.32-.88c.52-.72,1.12-.06,1.89-.08C74,8.84,73.67,9.39,73,9.19ZM88.62,23.41c-1.22.32-1.62.06-1.57-1.09s.17-2,.27-3.06c0-.26,0-.57.38-.62a.57.57,0,0,1,.67.33c.41,1.36,1.32,2.64.78,4.19.77.33.59,1.06.8,1.8C89,24.7,88.49,24.34,88.62,23.41Zm.55,2.16c-.71.66-1.19.46-1.62,0a.38.38,0,0,1,.14-.57C88.48,24.55,88.52,25.54,89.17,25.57ZM86.26,51.64,88,50.44c1.16-.78,1.57-.63,1.9.67.1.41-.12.55-.43.7a7.26,7.26,0,0,1-2.57.45c.42-.59,1.22-.5,1.65-1C87.87,51.22,87.27,51.92,86.26,51.64Zm2.37-2.8c-.13-.45-.77-.58-.71-1.23.59.11,1.33,0,1.61.55C89.67,48.47,89.13,48.85,88.63,48.84Zm.33-2c-.8-.19-2,.26-2.28-.58-.19-.63,1.1-.76,1.69-1.17a1.5,1.5,0,0,1,.47-.24c.44-.11.93-.79,1.26-.28a2.62,2.62,0,0,1,.36,1.9C90.29,47.08,89.45,46.57,89,46.81Zm-8.63-4a1.06,1.06,0,0,1-.75.5c-.7.15-1.38.82-2.1.3-.35-.25.82-2.22,1.47-2.52-.56-.66-.06-1.2.28-1.66s.82,0,1.21.08a11.41,11.41,0,0,1,3.73,1.76C82.85,41.94,81.81,42.89,80.33,42.82Zm1.31,2c0,.38-.35.32-.6.31a11.22,11.22,0,0,1-2.86-.65,5,5,0,0,1,1.95-1C80.63,43.36,81.7,44.34,81.64,44.85Zm-1-6.35a17.43,17.43,0,0,1,4.3-1.84.9.9,0,0,1,.88.17c.24.17.65.26.58.63s-.39.33-.65.37-.65,0-.8.46c.43.23,1.44,0,.93,1.11-.37.83-.69,1.25-1.63.81C83.07,39.66,81.63,39.66,80.64,38.5ZM86.18,43c.22-.41.48-.77,1-.55a6.33,6.33,0,0,1,2.09,1.12,6.28,6.28,0,0,1-2.15,1.16c-.34.13-.85.56-1.06.18A2,2,0,0,1,86.18,43ZM87,41.35a6.78,6.78,0,0,1,.57-.75c.37-.34.44-1.44,1.06-1a3.45,3.45,0,0,1,1,2.53c0,.25-.32.2-.53.11C88.42,42,87.78,41.7,87,41.35Zm2.49-2.66c-.17-.54.31-.67.66-.82.55-.22,1.09-.77,1.72-.43.4.21.13.72.06,1.09a11.24,11.24,0,0,1-1.26,3.61C90.22,40.81,89.84,39.76,89.5,38.69Zm2-2.76c-.54-.17-1.52-.12-1.23-1.16s.69-2.07,1-3.11a6.87,6.87,0,0,1,.8,3.43C92.11,35.51,92.2,36.14,91.5,35.93Zm.43-5.63a10.12,10.12,0,0,1,1.5,5l-.53.11Zm.16-4.65a.26.26,0,0,1-.44-.07c-.14-.65.26-1.12.5-1.85C92.47,24.55,92.52,25.14,92.09,25.65ZM90.8,24.42c-.83-2.1-.66-2.44,1.41-3.08A6.65,6.65,0,0,1,90.8,24.42Zm-.48-2.68c-.89-.14-.47-1.32-.88-1.87,0-.34-.08-.74.3-.64.69.19,1.69.24,1.81,1S90.81,21.82,90.32,21.74Zm-1.26-3.63a2.62,2.62,0,0,1,1.94.75A2.49,2.49,0,0,1,89.06,18.11Zm.94,12a.73.73,0,0,1,1-.42c.45.22.17.61.06.93-.38,1.18-.74,2.37-1.17,3.54-.12.35-.3.76-.76.77s-.61-.29-.49-.65C89.07,32.87,89.5,31.47,90,30.09Zm-2.15,3.17c-1.18-1.92-1.09-2.16,1-2.83A5.46,5.46,0,0,1,87.85,33.26Zm-.32,5.24a.32.32,0,0,1,.11.46,7.09,7.09,0,0,1-1.29,2.15A4.13,4.13,0,0,1,87,38.7.38.38,0,0,1,87.53,38.5Zm-2.15-4.13a12.69,12.69,0,0,1-1.85,0c.41.45,1,.44,1.53.63.23.09.59.1.54.45a.47.47,0,0,1-.62.34c-.57-.22-.59.33-.87.53a19.57,19.57,0,0,1-3.29,1.34,1.69,1.69,0,0,1-2.31-2c.16-1.34.79-1.73,2.09-1.26l2.49.94c-.25-.46-.84-.66-1-1.23a2.07,2.07,0,0,1-1.79-.61,11.16,11.16,0,0,1,4.91-1.7c1-.1,1.19,1.35,1.35,2.14S85.82,34.31,85.38,34.37Zm-7.3-19.56c.54.09.78.65.63,1.26a1.6,1.6,0,0,1-.13.5c-.18.3.06,1-.53.86a.82.82,0,0,1-.62-.92,3.44,3.44,0,0,1,.18-.75C77.76,15.43,77.38,14.69,78.08,14.81Zm-.32-2c-.41.61-.88.24-1.2-.1s-1.34-.48-.53-1.29a4.8,4.8,0,0,1,2.58-.22C78.59,11.89,78.09,12.3,77.76,12.79Zm1,14.65c-.18-.46.08-.54.45-.5.61.08,1.23.13,1.83.26.44.1,1.13,0,1.24.53s-.43.81-.85,1.05c.34.14-.86.95.29.7.25-.06.44-.4.79-.35-.12-.6.38-.75.75-.91s.56.3.77.54c.63.72-.1.67-.48.83.25.61,1.13.53,1.34,1.25a18,18,0,0,1-5,2c-.32.1-.61.07-.76-.3C78.53,31.27,78,30,77.49,28.74S77.89,27.47,78.73,27.44Zm1.76-1.09a3.41,3.41,0,0,1,2.67,0A3.26,3.26,0,0,1,80.49,26.35Zm3.35-1.86c0-.21,0-.53.29-.46a1.08,1.08,0,0,1,.75.81.55.55,0,0,1-.59.4C83.74,25.24,83.86,24.81,83.84,24.49ZM86,28.76c-.2.37.22,1.25-.42,1.1s-1-1.17-1.21-1.89.48-.47.83-.51C86.33,27.36,85.83,28.26,86,28.76ZM84,26.5a.25.25,0,0,1,0-.44c.61-.36,1.16,0,1.78.14A1.5,1.5,0,0,1,84,26.5ZM86.13,24a.43.43,0,0,1-.49.3,4.69,4.69,0,0,1-1.76-1.6.56.56,0,0,1,.16-.45c.75-.1,1.15.58,1.73.86A.65.65,0,0,1,86.13,24Zm-3.86-4.82c-.14-.48.18-.51.48-.57a6.35,6.35,0,0,1,1-.16c.61,0,1.22,0,2,0a3.82,3.82,0,0,1-1.33,1.44A1.27,1.27,0,0,1,82.27,19.14Zm.13,1.26a3.16,3.16,0,0,1-2-.42c-.3-.19-.63-.42-.49-.85s.5-.23.79-.27C81.73,18.73,82,19.46,82.4,20.4ZM80.74,21c1.12.8,1.13.79.54,1.87a.45.45,0,0,0,.12.06c.51.15,1-.7,1.45-.15s.21,1.55.17,2.33c0,.47-.47.45-.82.5L78.57,26c.07-.71.66-.93.88-1.38l-.24-.21-1.56,1c-.32-.86.38-4.51,1-4.85A2,2,0,0,1,80.74,21Zm-2.35-7.55c0-.88.82-1.23,1.22-1.89a1.71,1.71,0,0,1-.77,2.06C78.76,13.66,78.39,13.5,78.39,13.43ZM78.19,9c.17-.45-.47-.73-.24-1.27a2.68,2.68,0,0,1,1.74,1C79.2,9.26,78.65,8.77,78.19,9Zm-2,1.75c.26.15-.09.43-.16.66-.7.06-1.39.13-1.88-.67A2.35,2.35,0,0,1,76.19,10.72Zm-.64,3.38c.15-.35.53-.21.82-.24a.64.64,0,0,1,.76.55A1.74,1.74,0,0,1,77,15.79c-.18.26-.44-.09-.68-.13,0-.33-.25-.53-.42-.77S75.4,14.44,75.55,14.1Zm-.94,19.25a2.35,2.35,0,0,1-2.12.1.45.45,0,0,1,.07-.34C73.21,32.65,73.76,33.19,74.61,33.35Zm.91,2.13.47-.2c.44-.18.75-1,1.31-.46a1.43,1.43,0,0,1,.22,1.73c-.27.53-.22,1.35-1,1.48s-1.07-.54-1.51-1C74.17,36.25,75.62,36.08,75.52,35.48Zm1.24,12.93s0,0,.08.07l-.08.08-.08-.08S76.73,48.41,76.76,48.41Zm.06-5.88c.05-.75.05-1.28.14-1.8,0-.24,0-.73.51-.54a.56.56,0,0,1,.39.74A3,3,0,0,1,76.82,42.53Zm1.27,2.62c1.43.26,3,.17,4.5,1a10.77,10.77,0,0,1-4.66.8c-.8,0-.66-.86-.71-1.36S77.75,45.09,78.09,45.15Zm-.18,2.69c.12-.46.58-.29.9-.38A14.69,14.69,0,0,1,82,47.2c.32,0,.78-.23.93.21s-.32.57-.54.82a3.62,3.62,0,0,0-.2.33c-1,.15-1.46,1.49-2.65,1.3-.29.18-.27.85-.82.57a.89.89,0,0,1-.35-.64c0-.5.43-.26.65-.41-.23-.21-.46-.41-.68-.63S77.8,48.22,77.91,47.84Zm2,4.39c.6.28,2-.18,2,.77.06.53-1.39.84-2.27.93S79,53.32,79,52.84,79.18,52,79.92,52.23Zm-1.57,3.6c-.27.61-.93.75-1.49,1-.24.1-.42-.17-.38-.39.16-.8.93-.66,1.38-.9C78.18,55.49,78.47,55.57,78.35,55.83Zm-.14-2.28c0,1.14-.87.69-1.37,1-.31-.64.57-.86.29-1.38C77.48,53.3,78.19,52.48,78.21,53.55Zm-1-.81a1.57,1.57,0,0,0,0,.37c-.29,0-.45.64-.71.22a1.24,1.24,0,0,1,0-1.26.51.51,0,0,1,.71-.12C77.56,52.19,77.24,52.47,77.16,52.74ZM76.93,62c.09.51-.45.41-.61.62-.35,0-.66-.08-.7-.38-.05-.47.38-.54.7-.61A.48.48,0,0,1,76.93,62Zm.35.75a.5.5,0,0,1,.59.41c.11.36-.19.32-.39.33a.66.66,0,0,1-.67-.34A.53.53,0,0,1,77.28,62.74Zm2-7.42c-.06-.28.17-.4.36-.47.77-.29,1.55-.55,2.32-.82-.39,1.15-1.42,1.18-2.28,1.49A.28.28,0,0,1,79.31,55.32Zm1.53-3.65c-.32.22-.84,0-1-.37s.4-.46.53-.74c.42-.85,1.75-.86,1.84-2,.94-.09,1.21.35,1.06,1.22-.08.48,0,1-.07,1.46-.06.66-.31,1-1,.58C81.75,51.57,81.39,51.29,80.84,51.67Zm2.22-6.41c-.68-.55-1.74-1.07-1.79-1.85s1.2-.56,1.83-.9a5.68,5.68,0,0,1,1-.33c.76-.26,1.11,0,1,.76a3,3,0,0,1-.95,2.16A.76.76,0,0,1,83.06,45.26Zm.85,3.27c0-.58.1-1.3.86-1.26s.51.72.61,1.17a2.85,2.85,0,0,0,.41,1.46A3.1,3.1,0,0,0,86,48.13c0-.68.25-.72.82-.45s1,1.12,1.82,1.17a1.45,1.45,0,0,1-.69,1c-1,.68-2,1.38-3.07,2.07-.64.43-1.08.47-1-.51S83.85,49.5,83.91,48.53Zm5.55,6.85A7.64,7.64,0,0,1,91.1,53c.62,2,.36,2.65-1.09,3C89.43,56.11,89.22,55.89,89.46,55.38Zm1.87-12.76c.39-1.19.81-2.38,1.22-3.57l.38.07c.34,1.49-.24,2.87-.68,4.26-.08.24-.32.24-.55.12A.66.66,0,0,1,91.33,42.62Zm3.6,1.92c-.2-.2.15-.4.34-.54a4.22,4.22,0,0,1,1.34-1.48,2.08,2.08,0,0,1-1.15,1.64C95.33,44.37,95.13,44.73,94.93,44.54Zm-3-26.19a5.69,5.69,0,0,1-1.78-1.74c-.47-.71.39-.82.71-1.15s.69-.35.91.17a9.35,9.35,0,0,1,.77,2.4C92.6,18.65,92.24,18.55,91.9,18.35Zm.18-4.81A4.33,4.33,0,0,1,90,11.93,2.64,2.64,0,0,1,92.08,13.54Zm-2.22-1.82.08.19-.22-.08Zm.51,2.9c0,.32-.34.47-.56.67a.64.64,0,0,1-1-.1c-.24-.28-.6-.49-.68-.92a1.63,1.63,0,0,1,1.3-.14C89.77,14.18,90.28,14.14,90.37,14.62Zm-2.82-2.35a.47.47,0,0,1-.18-.68c.19-.33.46-.19.67,0a3.23,3.23,0,0,1,1.32,1.51C88.64,12.76,88.08,12.54,87.55,12.27Zm1.36-1.71.21.07-.1.14-.15-.17a3,3,0,0,1-2-1.4A3.51,3.51,0,0,1,88.91,10.56ZM88,27.06c.67.06,1.53,0,1.59,1s-1,1.71-2.13,1.75c-.63,0-.66,0-.66-1.5C86.61,27.46,87,27,88,27.06Zm-1.39-5.95c-.23,1.67-.24,1.65-1.61.71-.69-.48-.79-.87-.09-1.38.31-.24.6-.52.91-.76s.41-.58.75-.34c.15.11.13.47.18.68C86.7,20.42,86.66,20.77,86.61,21.11ZM86.4,14.3c.21.42.12.79-.46.83a1.14,1.14,0,0,0,.63,1.73c-.71.45-1.16-.32-1.71-.12,0,.44.51.46.66,1-1.45.2-2.83.84-4.32.19-.36-.16-.12.22-.24.27-.53.23-1.27.46-1.56,0a1.13,1.13,0,0,1,.35-1.68,5.34,5.34,0,0,1-.2-.88c0-.67.21-1,.94-.73.56.2,1.05.64,1.71.52,0-.78-.91-.57-1.22-1.16a5,5,0,0,1,4.17.35c0-.24-.53-.58.07-.71A1,1,0,0,1,86.4,14.3ZM80,13.05a1.91,1.91,0,0,1,2.06-1.63,4.61,4.61,0,0,1,3.4,1.92c-1.67-.08-3.22.47-4.84.46C80.1,13.8,80,13.54,80,13.05Zm5.63-2.39c0,.6-.44.34-.73.46-1.17.44-1.82-.31-2.56-1,.89.33,1.72-.26,2.58-.08C85.31,10.13,85.65,10.19,85.66,10.66ZM78.78,6c1.38-.16,4.58,1.3,5,2.6.21.65.93.42.9,1.2a6.34,6.34,0,0,1-5.13-2.18c-.29-.29-.66-.21-1-.4S78,7,78,6.57,78.4,6,78.78,6ZM72,3.83a19.72,19.72,0,0,1,6,1.38,1.38,1.38,0,0,1-1.66,0c-.77-.47-1.19-.25-1.43.55h0c.28.1.24.19,0,.29-1.39.47-2.67-.19-4-.37C70.7,4.72,70.32,3.75,72,3.83ZM70.88,6.61a2.51,2.51,0,0,1,2.22-.06c.22,0,.43,0,.44.32a3.17,3.17,0,0,1,2.37.33c-.24.47-.58.82-1.1.74A19,19,0,0,1,70.88,6.61Zm.61,6.51a1,1,0,0,1,.53-.86.65.65,0,0,1,.72.21c.43.49-.19.87-.18,1.32C72.18,13.59,71.36,14.07,71.49,13.12ZM71,15.2c-.08-.15.13-.39.31-.29,1.59.95.78-.79,1.23-1.1,1.77-.44,2.62,1,3.74,1.85-.1.58.45.91.56,1.41a1.25,1.25,0,0,1-.27,1.33c-.4.33-.69-.13-1-.35a5,5,0,0,0-.56-.3l-.06.06c.06.36,0,.63-.45.62-1,0-2-.06-3.06-.09-.51,0-.47-.39-.54-.75C70.75,16.78,71.43,16,71,15.2Zm3.61,11.52c.59.18,1,.58.49,1-1.13,1.05-1.25,2.65-2.24,3.75-.3.34-.5,1-1.12.63s.39-.68.12-1.17c-.72.36-1.07.1-1-.76a3.17,3.17,0,0,0,0-.53C70.71,26.14,71.26,25.72,74.63,26.72ZM71.34,35.5c.41.52.66,1,.32,1.48-.13.18-.55,0-.68-.2C70.64,36.26,71.07,35.94,71.34,35.5ZM69.62,20.29c0-.37-.29-1,.44-1,.5,0,.63.55.59,1.09-.12.31.17,1-.51,1S69.55,20.74,69.62,20.29Zm-.19,4.16c0-.51-.13-1.23.65-1.16s.41.91.62,1.31c-.14.43.28,1.06-.47,1.08S69.45,25,69.43,24.45Zm1.11,4.76a5.46,5.46,0,0,1-.79-2.4.44.44,0,0,1,.34-.6c.37-.08.63.09.64.46A5.42,5.42,0,0,1,70.54,29.21Zm-.25,11c-.32,0-.65.06-.62-.41.08-1.11,1-1.07,1.74-1.24.4-.09.59,0,.57.45C72,40.15,71.09,40.11,70.29,40.19Zm5.25,3.9c-.38.61-1.52.4-2.37.39-2.13,0-2.13,0-1.68-2,.08-.35.18-.69.28-1,.52-1.65,1.27-1.83,2.43-.59a3.16,3.16,0,0,0-.13-1c-.21-.41-.82-.91-.44-1.23s1.28-.13,1.94-.09c.16,0,.35.12.31.35s-.55.23-.7.53c1.51.27,1.8,1.18,1.19,3.77-.78-.14-.73-1.41-1.7-1.26C75,42.62,76,43.41,75.54,44.09Zm-3.49,6.09a14.4,14.4,0,0,0,2.88-1.58c.69-.39,1.33-.83,1.1.64.46-.22.67-.89,1-.6.71.59.61,1.49.54,2.33l-.2.15a22.29,22.29,0,0,1-4.76.4c-.42-.05-1,.18-1.23-.2C71.11,50.78,71.9,50.61,72.05,50.18Zm2.81,3.9A17.58,17.58,0,0,1,70.68,52a20.54,20.54,0,0,1,4.64-.12c1.17.08.58.94.53,1.52S75.66,54.46,74.86,54.08Zm-.39,5.22a4.83,4.83,0,0,1,.71-.06c-.3-.43-.87-.07-1.12-.5.1-.5.79-.35.92-.81-.36-.21-.71.08-1.07,0l-.07.1.06-.11c-.06-.56.35-.9.69-1.2s.86-.67,1.29-.24-.15.82-.38,1.19a2.73,2.73,0,0,1,.65,2.66c-.54.75-1.33.59-2,.31a1.06,1.06,0,0,1-.65-1.07C73.55,59.05,74.12,59.37,74.47,59.3Zm.7,3.57c0,.34-.29.38-.53.47l-1.36.52c.25-.72,1.08-.75,1.17-1.37C74.71,62.59,75.12,62.45,75.17,62.87Zm-5.92-4.52c.58-.2,1.16-.41,1.75-.59.3-.09.64-.17.72.3a.47.47,0,0,1-.49.62c-.65,0-1.29,0-1.93,0C69.28,58.57,69.27,58.46,69.25,58.35Zm2.08,1a5.24,5.24,0,0,1,.16.69c-.44.28-.8.86-1.51.37A1.87,1.87,0,0,1,71.33,59.38Zm-.49,1.93c.44-.3.9-.59.67-1.24,1.12-.35,1.15-.35,1.57.84.12.33.34.16.5.23.58.26,1.11.54.86,1.33a4.25,4.25,0,0,0-2.07,1.07c-.76.51-1.2.23-1.61-.42S70,61.88,70.84,61.31Zm-1.83,4c.55-.28,1-.56,1.52-.25.17.11,0,.44-.11.58C69.82,66.2,69.53,65.52,69,65.34Zm7.27.74a.8.8,0,0,1-1.06.17c-.69-.34-.71-.3-1,.39S70.41,67.9,70,67.4c-.11-.13-.06-.41-.07-.63.44-.23,1-.26,1-1,0-.58.56-1,1.27-.5a3.4,3.4,0,0,0,.87.27l.07-.07c0-.26-.93-.62,0-.78,1.25-.21,2.52-.36,3.78-.52.25,0,.66,0,.6.3C77.41,65.16,76.76,65.57,76.28,66.08Zm1.56,1.19c.31-.63.62-.39,1-.34C78.56,67.36,78.24,67.24,77.84,67.27ZM79.09,65c-.3.65-1,.63-1.66.79.31-.49.42-1.22,1.22-1.17C78.87,64.66,79.18,64.82,79.09,65Zm-.2-1c0-.47.48-.37.8-.42s.6-.12.52.32-.37.45-.71.41S78.87,64.4,78.89,64.07Zm.7,2.63c.69-1.8,2.23-1.89,3.66-2.16C81.74,64.67,81.17,66.45,79.59,66.7Zm2-2.69A3.6,3.6,0,0,1,83.69,63,3.2,3.2,0,0,1,81.55,64Zm3.81-2.32c-1.35.11-2.48,1-3.9,1a3.13,3.13,0,0,0,.66-1.93c.18-1.32,1.24-1.58,2.31-.75.3.23.68.28,1,.64C86,61.19,85.66,61.66,85.36,61.69Zm0-3.09a5.38,5.38,0,0,1-1.78.23c.88-.64.28-1.33.22-2-.28-.12-.38.11-.51.27-1.16,1.35-1.52,1.32-2.64-.26-.41-.06-.87-.16-.76-.68.07-.37.52-.47.87-.51.56-.08.31.37.36.63A5.61,5.61,0,0,1,83,54.66c.46-.22.92-.57,1.43-.13s0,.79-.1,1.18a1.12,1.12,0,0,0,0,.36c.51,0,.52-1.17,1.22-.65s1.52,1.08,1.55,1.68C87.14,57.88,86.1,58.3,85.35,58.6ZM87.09,61a4.51,4.51,0,0,1,1.52-2.69c.66-.48,1,.42,1.62.54A10.3,10.3,0,0,1,87.09,61Zm4.7-3.51c0,.46-.12.88-.63,1-.3,0-.62-.15-.59-.45A1.32,1.32,0,0,1,91.45,57C91.84,56.83,91.8,57.26,91.79,57.49Zm.69-3.27c-.61.09-.29-.57-.45-.86a.21.21,0,0,1,0-.13c-.09-.5-.36-1,0-1.5a.41.41,0,0,1,.34-.08,2.31,2.31,0,0,1,.51,1.47C92.91,53.63,92.91,54.16,92.48,54.22Zm.42,3.06c.24-.85.34-1.77,1.66-2.33A6.91,6.91,0,0,1,92.9,57.28ZM95,53.81s-.3-.1-.3-.15c0-.62.44-1,.84-1.75A1.71,1.71,0,0,1,95,53.81Zm.57-7.29a.69.69,0,0,1-.2-1.12c.39-.48.72-1,1.08-1.49l.42.37a3.49,3.49,0,0,1-.27,1.81A.65.65,0,0,1,95.55,46.52Zm.88,6.14A4.3,4.3,0,0,1,97,49.8,4,4,0,0,1,96.43,52.66Zm.39-11.77c-.44.36-.6-.1-.83-.34-.42-.43-.63-1.06-1.22-1.33-.08-.69-1.3-1.37-.45-1.92s1.08.72,1.57,1.2A11.72,11.72,0,0,1,97,39.84.71.71,0,0,1,96.82,40.89Zm-2.09-4.74c-.31-.32,0-.46.14-.63.47-.45.95-.89,1.6-1.49a17,17,0,0,1,.76,4.73C96.22,37.71,95.49,36.91,94.73,36.15Zm3.08,13.1c.17-1,.08-1.68,1-2.29C98.7,47.87,98.79,48.58,97.81,49.25Zm.75-5.92c-.58-1.46,0-2.68.71-3.9C99.74,40.85,99.17,42.1,98.56,43.33Zm-.44-8c1.37,1.48,1.4,1.75.33,3.39C98.16,37.58,97.65,36.59,98.12,35.35Zm1.42,0c-1-.68-1.8-1.35-1.75-2.53a.73.73,0,0,1,.89-.75L98.8,32c0-.39-.06-.91.49-.9.38,0,.27.49.35.77C100,33,98.9,34.1,99.54,35.34Zm.45,7.13a3.38,3.38,0,0,1,.15-2.15A2.48,2.48,0,0,1,100,42.47Z"/><path class="cls-2" d="M46.43,63.13c-6.5,1.46-17.76,2-24.36,1.67-5-.26-10-.93-14.56-3.1-7.27-3.42-8.92-9.06-4.79-16a45,45,0,0,1,6.63-8,19.66,19.66,0,0,0-3.54,3.34A23.35,23.35,0,0,0,.59,49.38c-1.08,3.32-.76,6.43,1.59,9.16a14.6,14.6,0,0,0,5.46,3.75c4.58,2,9.43,2.58,14.34,2.91,6.57.44,17.77-.68,24.3-1.16a17.84,17.84,0,0,0,3.37-.89A7.15,7.15,0,0,0,46.43,63.13Z"/><path class="cls-3" d="M60.92,32.64a1,1,0,0,0,.13.19c.37,0,.75-.53,1.08-.14A.91.91,0,0,1,62,33.8c-.43.51-.18.88.06,1.3,0-.72.36-1.15,1.13-1.16.14,0,.2.05.19.19l.12.45c.05.12.09.24.14.35.15.49.3,1,.47,1.57.31-.5.06-.87.07-1.24s-.69-.92.56-1.31c1.94-.61,1.84-.94,3.26-.9.08-.17.15-.34.22-.5a9.38,9.38,0,0,1-3.62-.64c-.79-.29-1-.61-.35-1.29.49-.5,1.13-.87,1.36-1.59-.72.64-1.71.9-2.3,1.74-.36.52-.67.08-.94-.2A16.17,16.17,0,0,0,60,28c.36.58.72,1.17,1.11,1.72C62.25,31.3,62.26,31.3,60.92,32.64Z"/><path class="cls-3" d="M60,28v0L60,28Z"/><path class="cls-3" d="M56.09,6.16c.77,0,1.51-.52,2.32-.23.44,0,.09-.65.46-.7C60.09,5.06,61,4,62.32,4.1a1.47,1.47,0,0,0,1.32-.45c.5-.75,1-.65,1.69-.32s.73-.08.61-.6c-2.63,0-5.07,1-7.58,1.6h.06c.1,0,.17.14.33.28-.22.08-.37.19-.52.18s-.36-.08-.26-.31A.24.24,0,0,1,58,4.41c-.55.13-1.09.26-1.64.35,0,.06,0,.08-.1.08.28,0,.68-.13.79.24s-.26.41-.49.52c-.43.2-.84.62-1.37.25C55.34,6.39,55.74,6.18,56.09,6.16Z"/><path class="cls-3" d="M55.22,5.83h0l0,0Z"/><path class="cls-3" d="M58,4.41l.33-.08A.33.33,0,0,0,58,4.41Z"/><path class="cls-3" d="M66.28,9c.39,0,.78.23,1.16.22.62,0,1.36.38,1.8-.42a4.18,4.18,0,0,1-3.45-.52c-.2-.15-.64,0-1,.06-1,.44-1.37,2.16-2.94,1.43a.46.46,0,0,0,.45.4,1.44,1.44,0,0,1,1.32,1.53c0,.81-.54,1.29-1.82,1.38,1.18.23,1.2.7,1,1.27h.42c.59-.05.86-.56,1.28-.87-.57-1-.42-1.76.31-1.84.19,0,.42.91.51,0,0-.45.82-.95.23-1.28s-.4-.8-.32-1.1S65.91,9,66.28,9Z"/><path class="cls-3" d="M48.18,24.48a.92.92,0,0,0-.49-1c-.1.47-.9-.23-.65.22.69,1.27-.49,1-.91,1.15-.84.25-.54-.54-.69-.78-.11.69.53,1.92-1.07,2l.36.3c.15,0,.28.06.23.26a2.74,2.74,0,0,0,0,.28c.19,0,.44-.05.49.26,0,.16.06.33.08.49a1.06,1.06,0,0,1,.19-.06c.36-.66.6-.28.84.1h0c-.39-1.36-.15-1.56,1.57-1.32,0,0,0,0,0,.07a.29.29,0,0,0,0-.09C48.2,25.74,47.66,25.12,48.18,24.48Zm-.65,1.65c-.27-.06-.69,0-.65-.44a.66.66,0,0,1,.63-.57c.37,0,.48.28.51.56S47.84,26.2,47.53,26.13Z"/><path class="cls-3" d="M55.2,27.9c-.16-.55-.11-1,.59-1a8,8,0,0,1-.88-1,1.66,1.66,0,0,1-.28-.87c0-1.24,0-2.49,0-3.74,0-.32,0-.61.36-.52.75.2,1.16-.54,1.81-.55,0-.17.07-.33.11-.5-.72.38-1.28.46-1.22-.64,0,1-1.24.69-1.48,1.43a6.15,6.15,0,0,0-.43.56c1.2,1.23.52,2.77.64,4.15s-.31,1.68-1.85,1.27c1.73.46,1.73.46,1.27,1.82.39-.24.6-1.21,1.29-.3C55.27,28.24,55.23,28,55.2,27.9Z"/><path class="cls-3" d="M44.92,19a.9.9,0,0,1,.2.26,2.47,2.47,0,0,1,1.1-1.54l-.9-.92c-.19,1.48-2.2,1.42-2.28,2.82C43.54,19.32,44.24,18.47,44.92,19Z"/><path class="cls-3" d="M45.2,21.36a2.35,2.35,0,0,0-.08-2.06A3.56,3.56,0,0,0,45.2,21.36Z"/><path class="cls-3" d="M41.33,46.36c.88.35.55,1.11.77,1.7,1.29-1.23,1.33-1.46.53-2.34-.12-.13-.18-.31-.38-.32s-.7-.18-.73.28C41.51,46,41,46.22,41.33,46.36Z"/><path class="cls-3" d="M59,55.81c-.21-.82.64-.61,1.13-1-1.2.07-1.8-.29-1.58-1.41a4.84,4.84,0,0,1-.16,1c-.14.36.12.8-.22,1.09-.61,0-.34-.65-.71-.9a.82.82,0,0,1-.24,1.28c-.56.36-.52.36,0,.81a1.09,1.09,0,0,0,1.39.14C58.63,56.42,57.85,55.74,59,55.81Z"/><path class="cls-3" d="M42.48,35.66l.45-1.2-.38,0-.46-.56c-1.22.92-.16,2-.24,3C42.11,36.58,41.68,35.81,42.48,35.66Z"/><path class="cls-3" d="M51.85,54.19c.16-.2.12-.57.44-.8.65-.46.1-.84-.21-1.06-.67-.46-.92-.62-1-1C50.83,52.38,50,53.56,51.85,54.19Z"/><path class="cls-3" d="M51.06,50.52a3.62,3.62,0,0,0,0,.85A1.23,1.23,0,0,0,51.06,50.52Z"/><path class="cls-3" d="M59.74,38.9a.75.75,0,0,1,.72.65c.15.83.28.92,1,.23.52-.52.79-.66.1-1.17-.43-.31-.24-.69,0-1,0-.35,0-.7.08-1.05l-.3-.23a.34.34,0,0,1,0,.22c.12.41-.27.54-.45.79.29,1-.06,1.43-1.13,1.08,0,.09-.11.18-.16.28Z"/><polygon class="cls-3" points="59.73 38.4 59.73 38.4 59.74 38.39 59.73 38.4"/><path class="cls-3" d="M50.9,45.4l-.26,0c-1.15.08.1,1.08-.53,1.36.82.31.62,1.16,1,1.75,0-.5.05-1,.07-1.49s1.07-.28,1.13-1c-.46-.06-1.19.34-1.1-.65Z"/><path class="cls-3" d="M49.18,62.56l-.57,0c-.12.3.1.49.2.72,1.41.68,2.65,1.71,4.23,2.06A7.3,7.3,0,0,1,52,64.59C51.12,63.8,49.67,63.83,49.18,62.56Z"/><path class="cls-3" d="M58.19,46.46c-.06.27,0,.6-.45.6a.19.19,0,0,1-.08.16c0,.12,0,.24,0,.36.21.17.56.14.62.49l.09,1.29c.82-.5.66-2.07,2.08-1.88C59.69,47.18,58.76,47.24,58.19,46.46Z"/><path class="cls-3" d="M58.38,49.39h0v0h0Z"/><path class="cls-3" d="M53.57,11.64h0Z"/><path class="cls-3" d="M52.59,11.63c.28-.27.64.06,1,0a3.26,3.26,0,0,1-.31-.54c-.09-.26.54-.38.21-.65s-.64-.13-.91.19a.78.78,0,0,1-.84.16c0,.11,0,.22,0,.33C51.86,11.53,51.7,12.48,52.59,11.63Z"/><path class="cls-3" d="M49.5,17.75c.42-.6.88-1.13,1.73-.76,0-.38-.11-.76-.17-1.15l-2.14,1,.57.88Z"/><path class="cls-3" d="M45.77,35.58c-.21.23-.41.47-.61.7.24.25-.31.83.37.9l1-.38c-.27-.94.62-.92.93-1.25C47,35.39,46.39,36.28,45.77,35.58Z"/><path class="cls-3" d="M59.12,11.16a.3.3,0,0,1-.16.05.86.86,0,0,1-.49.74c-.26.11-.68.05-.53.51s.53.29.79.33c.41.05.71-.52,1.2-.32-.14-.25-.39-.46-.21-.79C59.39,11.67,59.11,11.58,59.12,11.16Z"/><path class="cls-3" d="M60,12.48h0l0,0Z"/><path class="cls-3" d="M59.72,11.66v0h0Z"/><path class="cls-3" d="M58.64,8.67l-.75.46c.72.6,1.56-.15,2.34.1C59.71,9,59.49,8,58.64,8.67Z"/><path class="cls-3" d="M55.91,36.64c.48-.08.43-.4.45-.77,0-.21.13-.4-.07-.57l-.59.13c-.29.22-.78.35-.45.87A.63.63,0,0,0,55.91,36.64Z"/><path class="cls-3" d="M55.18,13l0,0h0Z"/><path class="cls-3" d="M55.8,13.9c.68-.09.62-.64.47-1.15h0L55.18,13C55.26,13.41,55.18,14,55.8,13.9Z"/><path class="cls-3" d="M58,51c.35-.61.35-.61,1-.8a3,3,0,0,1,0-.31.57.57,0,0,1-.54-.52C56.33,49.51,58.37,50.54,58,51Z"/><path class="cls-3" d="M56,61.47c-.12-.11-.69,0-.51.32.37.68.47,1.71,1.66,1.59.29,0,.85,0,.77-.37C57.77,62,56.67,62,56,61.47Z"/><path class="cls-3" d="M58.25,66.91a11.9,11.9,0,0,0,1.53.32c.64.06,1.29,0,2.2,0C60.74,66.2,58.87,66.11,58.25,66.91Z"/><path class="cls-3" d="M62.06,7.1c-.07,0-.12-.09-.09-.25-.61-1.08-1.3-.31-1.9,0-.36.18-.1.23.14.42C60.91,7.79,61.46,7.12,62.06,7.1Z"/></g></g></svg>