<svg xmlns="http://www.w3.org/2000/svg" viewBox="0 0 118 70.83"><defs><style>.cls-1{fill:#999;opacity:0.17;}.cls-2{fill:#e63231;}.cls-3{fill:#e64e31;}</style></defs><title>icon_2</title><g id="Layer_2" data-name="Layer 2"><g id="Layer_5" data-name="Layer 5"><path class="cls-1" d="M67.45,42c0,1.76-1.52,3.37-4,4.6A29.55,29.55,0,0,1,51,49a29.55,29.55,0,0,1-12.42-2.4c-2.51-1.23-4-2.84-4-4.6s1.52-3.37,4-4.6A29.55,29.55,0,0,1,51,35a29.55,29.55,0,0,1,12.42,2.4C65.93,38.63,67.45,40.24,67.45,42Z"/><circle class="cls-2" cx="52" cy="20" r="20"/><circle class="cls-2" cx="109" cy="37" r="9"/><circle class="cls-2" cx="9" cy="46" r="9"/><path class="cls-3" d="M39.74,29.54a5.32,5.32,0,0,0-.66-2.12,5.25,5.25,0,0,0-1.4-1.72c-.4-.28-.77-.39-1-.24a.87.87,0,0,0-.11.09h0l-16,10,2.9,5,16-10,0,0A1.09,1.09,0,0,0,39.74,29.54Z"/><path class="cls-2" d="M23.36,40.54c-.27.15-.64,0-1-.24a5.25,5.25,0,0,1-1.4-1.72,5.32,5.32,0,0,1-.66-2.12c0-.49.11-.86.38-1s.64,0,1,.24a5.25,5.25,0,0,1,1.4,1.72,5.32,5.32,0,0,1,.66,2.12C23.76,40,23.63,40.4,23.36,40.54Z"/><path class="cls-3" d="M75.16,23.65a5.31,5.31,0,0,0-1.23,1.85,5.11,5.11,0,0,0-.44,2.17c0,.49.19.84.47,1a.32.32,0,0,0,.14,0h0L92,34.73l2-5.38L76.14,23.26v0A1.05,1.05,0,0,0,75.16,23.65Z"/><path class="cls-2" d="M94,29.37c.28.12.44.47.47,1a5.11,5.11,0,0,1-.44,2.17,5.31,5.31,0,0,1-1.23,1.85c-.37.32-.73.46-1,.34s-.44-.47-.48-1a5.3,5.3,0,0,1,.45-2.17A5.17,5.17,0,0,1,93,29.71C93.39,29.39,93.75,29.25,94,29.37Z"/><path class="cls-1" d="M18,67c0,1-.83,1.84-2.21,2.52A16.2,16.2,0,0,1,9,70.83a16.2,16.2,0,0,1-6.79-1.31C.83,68.84,0,68,0,67s.83-1.84,2.21-2.52A16.2,16.2,0,0,1,9,63.17a16.2,16.2,0,0,1,6.79,1.31C17.17,65.16,18,66,18,67Z"/><path class="cls-1" d="M118,59c0,1-.83,1.84-2.21,2.52a18.25,18.25,0,0,1-13.58,0C100.83,60.84,100,60,100,59s.83-1.84,2.21-2.52a18.25,18.25,0,0,1,13.58,0C117.17,57.16,118,58,118,59Z"/><polygon class="cls-1" points="71 49 75 47 91 52 87 55 71 49"/><polygon class="cls-1" points="37.91 51.24 33.91 49.24 21 58 25 60 37.91 51.24"/></g></g></svg>