<svg xmlns="http://www.w3.org/2000/svg" viewBox="0 0 80 105.17"><defs><style>.cls-1{fill:#e63231;}.cls-2{fill:none;stroke:#e63231;stroke-miterlimit:10;}.cls-3,.cls-4,.cls-5,.cls-6{fill:#999;}.cls-3{opacity:0.1;}.cls-4{opacity:0.17;}.cls-5{opacity:0.09;}.cls-6{opacity:0.06;}</style></defs><title>icon_3</title><g id="Layer_2" data-name="Layer 2"><g id="icon_3"><circle class="cls-1" cx="52" cy="44" r="14"/><circle class="cls-1" cx="14" cy="73" r="9"/><circle class="cls-1" cx="48" cy="77" r="5"/><circle class="cls-1" cx="75" cy="58" r="5"/><circle class="cls-1" cx="38" cy="10" r="10"/><circle class="cls-1" cx="66" cy="19" r="7"/><circle class="cls-1" cx="4" cy="33" r="4"/><circle class="cls-1" cx="28" cy="46" r="5"/><polygon class="cls-2" points="38 10.1 28 46.1 48 77.16 38 10.1"/><line class="cls-2" x1="75" y1="58" x2="38" y2="10.1"/><path class="cls-3" d="M20.84,96.09c0,.73-.63,1.4-1.67,1.91A12.34,12.34,0,0,1,14,99a12.34,12.34,0,0,1-5.17-1c-1-.51-1.67-1.18-1.67-1.91s.63-1.4,1.67-1.92a12.35,12.35,0,0,1,5.17-1,12.35,12.35,0,0,1,5.17,1C20.21,94.69,20.84,95.36,20.84,96.09Z"/><path class="cls-4" d="M51.5,89.28c0,.38-.32.72-.86,1a7.09,7.09,0,0,1-5.28,0c-.54-.26-.86-.6-.86-1s.32-.71.86-1a7,7,0,0,1,5.28,0C51.18,88.57,51.5,88.91,51.5,89.28Z"/><path class="cls-5" d="M64.08,101.52c0,.91-.8,1.75-2.11,2.39a15.3,15.3,0,0,1-6.47,1.26A15.3,15.3,0,0,1,49,103.91c-1.31-.64-2.11-1.48-2.11-2.39s.8-1.76,2.11-2.4a15.31,15.31,0,0,1,6.47-1.25A15.31,15.31,0,0,1,62,99.12C63.28,99.76,64.08,100.6,64.08,101.52Z"/><path class="cls-6" d="M78.5,89.28c0,.38-.32.72-.86,1a7.09,7.09,0,0,1-5.28,0c-.54-.26-.86-.6-.86-1s.32-.71.86-1a7,7,0,0,1,5.28,0C78.18,88.57,78.5,88.91,78.5,89.28Z"/><polyline class="cls-2" points="28 46 52 44 66 19 38 10 4 33 14 73 48 77 75 58"/><polyline class="cls-2" points="48 77.16 52 44.13 75 58 66 19 4 33 28 46 14 73"/></g></g></svg>