<svg xmlns="http://www.w3.org/2000/svg" viewBox="0 0 75 77.03"><defs><style>.cls-1,.cls-3{fill:#999;}.cls-1{opacity:0.17;}.cls-2{fill:#cacaca;}.cls-4{fill:#e63231;}</style></defs><title>icon_1</title><g id="Layer_2" data-name="Layer 2"><g id="Layer_3" data-name="Layer 3"><path class="cls-1" d="M69.23,63.53c0,3.39-2.94,6.49-7.78,8.87C55.62,75.23,47.05,77,37.5,77s-18.12-1.8-23.95-4.63C8.71,70,5.77,66.92,5.77,63.53S8.71,57,13.55,54.66C19.38,51.83,28,50,37.5,50s18.12,1.8,24,4.63C66.29,57,69.23,60.14,69.23,63.53Z"/><path class="cls-2" d="M74.45,22.21C71.41,13,56,6,37.5,6,16.79,6,0,14.76,0,25.53a9.24,9.24,0,0,0,.06,1H0a37.49,37.49,0,0,0,75-1.06A12.4,12.4,0,0,0,74.45,22.21Z"/><path class="cls-3" d="M69.23,25.53c0,3.39-2.94,6.49-7.78,8.87C55.62,37.23,47.05,39,37.5,39s-18.12-1.8-23.95-4.63C8.71,32,5.77,28.92,5.77,25.53S8.71,19,13.55,16.66C19.38,13.83,28,12,37.5,12s18.12,1.8,24,4.63C66.29,19,69.23,22.14,69.23,25.53Z"/><path class="cls-4" d="M63,25.53a25.55,25.55,0,0,1-1.58,8.87C55.62,37.23,47.05,39,37.5,39s-18.12-1.8-23.95-4.63A25.54,25.54,0,1,1,63,25.53Z"/></g></g></svg>