<?xml version="1.0" encoding="UTF-8" standalone="no"?>
<!-- Created with Inkscape (http://www.inkscape.org/) -->

<svg
   xmlns:dc="http://purl.org/dc/elements/1.1/"
   xmlns:cc="http://creativecommons.org/ns#"
   xmlns:rdf="http://www.w3.org/1999/02/22-rdf-syntax-ns#"
   xmlns:svg="http://www.w3.org/2000/svg"
   xmlns="http://www.w3.org/2000/svg"
   xmlns:sodipodi="http://sodipodi.sourceforge.net/DTD/sodipodi-0.dtd"
   xmlns:inkscape="http://www.inkscape.org/namespaces/inkscape"
   width="60mm"
   height="60mm"
   viewBox="0 0 60 60"
   version="1.1"
   id="svg1994"
   inkscape:version="0.92.4 (5da689c313, 2019-01-14)"
   sodipodi:docname="watch.svg">
  <defs
     id="defs1988">
    <clipPath
       id="fm"
       clipPathUnits="userSpaceOnUse">
      <path
         inkscape:connector-curvature="0"
         d="m 1416.32,1162.47 v 19.01 l 39.1,22.57 v -19.01 l -39.1,-22.57"
         id="path9950" />
    </clipPath>
    <linearGradient
       id="fn"
       x1="0"
       x2="1"
       y1="0"
       y2="0"
       gradientTransform="matrix(0,964.149,723.112,417.489,1136.09,513.16)"
       gradientUnits="userSpaceOnUse"
       spreadMethod="pad">
      <stop
         offset="0"
         stop-color="#8071c0"
         stop-opacity="1"
         id="stop9953" />
      <stop
         offset="1"
         stop-color="#9688cc"
         stop-opacity="1"
         id="stop9955" />
    </linearGradient>
    <clipPath
       id="fk"
       clipPathUnits="userSpaceOnUse">
      <path
         inkscape:connector-curvature="0"
         d="m 1416.31,1162.47 -159.27,91.95 v 19.01 l 159.27,-91.95 v -19.01"
         id="path9942" />
    </clipPath>
    <linearGradient
       id="fl"
       x1="0"
       x2="1"
       y1="0"
       y2="0"
       gradientTransform="matrix(0,1000.83,1000.83,0,1148.55,505.34)"
       gradientUnits="userSpaceOnUse"
       spreadMethod="pad">
      <stop
         offset="0"
         stop-color="#7e71c0"
         stop-opacity="1"
         id="stop9945" />
      <stop
         offset="1"
         stop-color="#4e4aa8"
         stop-opacity="1"
         id="stop9947" />
    </linearGradient>
    <clipPath
       id="fi"
       clipPathUnits="userSpaceOnUse">
      <path
         inkscape:connector-curvature="0"
         d="m 602.711,1121.76 -0.309,0.18 0.309,-0.18 m -0.371,0.22 c -0.039,0.02 -0.078,0.04 -0.121,0.06 0.043,-0.02 0.082,-0.04 0.121,-0.06 m -15.75,1.33 0.008,0.01 c 1.824,0.96 3.859,1.47 6.062,1.47 -2.203,0 -4.246,-0.51 -6.07,-1.48 m 6.14,1.48 h -0.035 0.035"
         id="path9932" />
    </clipPath>
    <linearGradient
       id="fj"
       x1="0"
       x2="1"
       y1="0"
       y2="0"
       gradientTransform="matrix(0,583.809,583.809,0,732.22,545.56)"
       gradientUnits="userSpaceOnUse"
       spreadMethod="pad">
      <stop
         offset="0"
         stop-color="#8071c0"
         stop-opacity="1"
         id="stop9935" />
      <stop
         offset="0.697"
         stop-color="#9688cc"
         stop-opacity="1"
         id="stop9937" />
      <stop
         offset="1"
         stop-color="#9688cc"
         stop-opacity="1"
         id="stop9939" />
    </linearGradient>
    <clipPath
       id="fg"
       clipPathUnits="userSpaceOnUse">
      <path
         inkscape:connector-curvature="0"
         d="m 577.48,1102.69 c 0,10.41 3.547,17.67 9.118,20.63 l -0.008,-0.01 c -5.567,-2.96 -9.11,-10.21 -9.11,-20.62"
         id="path9924" />
    </clipPath>
    <linearGradient
       id="fh"
       x1="0"
       x2="1"
       y1="0"
       y2="0"
       gradientTransform="matrix(0,458.173,343.63,-198.395,732.435,607.54)"
       gradientUnits="userSpaceOnUse"
       spreadMethod="pad">
      <stop
         offset="0"
         stop-color="#4e4aa8"
         stop-opacity="1"
         id="stop9927" />
      <stop
         offset="1"
         stop-color="#7e71c0"
         stop-opacity="1"
         id="stop9929" />
    </linearGradient>
    <clipPath
       id="fe"
       clipPathUnits="userSpaceOnUse">
      <path
         inkscape:connector-curvature="0"
         d="m 899.184,796.68 0.89,0.519 c 1.449,0.832 2.758,0.883 3.793,0.332 l -0.004,0.051 3.348,-1.934 -1.637,-0.128 c 0.309,-0.782 0.477,-1.731 0.477,-2.84 v -53.891 c 0,-4.398 -2.676,-9.519 -5.977,-11.418 l -0.89,-0.519 -1.219,-0.532 0.855,-1.82 -3.566,2.051 0.062,0.008 c -1.281,0.722 -2.109,2.39 -2.109,4.812 v 53.899 c 0,4.402 2.676,9.511 5.977,11.41 z"
         id="path9916" />
    </clipPath>
    <linearGradient
       id="ff"
       x1="0"
       x2="1"
       y1="0"
       y2="0"
       gradientTransform="matrix(0,73.3884,73.3884,0,900.209,724.5)"
       gradientUnits="userSpaceOnUse"
       spreadMethod="pad">
      <stop
         offset="0"
         stop-color="#5659b1"
         stop-opacity="1"
         id="stop9919" />
      <stop
         offset="1"
         stop-color="#c1b9e2"
         stop-opacity="1"
         id="stop9921" />
    </linearGradient>
    <clipPath
       id="fc"
       clipPathUnits="userSpaceOnUse">
      <path
         inkscape:connector-curvature="0"
         d="m 863.039,545.871 c 5.063,3.231 8.242,10.258 8.242,20.117 v 367.071 c 0,18.582 -11.293,40.171 -25.23,48.211 l -243.34,140.49 -0.309,0.18 c -0.019,0.01 -0.039,0.02 -0.062,0.04 -0.039,0.02 -0.078,0.04 -0.121,0.06 -3.364,1.86 -6.571,2.75 -9.489,2.75 h -0.07 c -2.203,0 -4.238,-0.51 -6.062,-1.47 l 6.98,4.09 v -0.05 c 2.059,1.31 4.426,2.01 7.016,2.01 3.051,0 6.418,-0.97 9.957,-3.01 l 243.34,-140.489 c 13.933,-8.051 25.23,-29.633 25.23,-48.211 V 570.582 c 0,-10.48 -3.601,-17.773 -9.246,-20.684 h 0.004 l -6.84,-4.027"
         id="path9906" />
    </clipPath>
    <linearGradient
       id="fd"
       x1="0"
       x2="1"
       y1="0"
       y2="0"
       gradientTransform="matrix(0,583.809,583.809,0,732.22,545.56)"
       gradientUnits="userSpaceOnUse"
       spreadMethod="pad">
      <stop
         offset="0"
         stop-color="#c5bae3"
         stop-opacity="1"
         id="stop9909" />
      <stop
         offset="0.697"
         stop-color="#ede9f6"
         stop-opacity="1"
         id="stop9911" />
      <stop
         offset="1"
         stop-color="#ede9f6"
         stop-opacity="1"
         id="stop9913" />
    </linearGradient>
    <clipPath
       id="fa"
       clipPathUnits="userSpaceOnUse">
      <path
         inkscape:connector-curvature="0"
         d="m 871.34,530.25 c -2.258,0 -4.68,0.5 -7.211,1.531 a 29.352,29.352 0 0 0 -3.356,1.66 l -48.761,28.161 -42.922,24.777 -10.242,5.91 -54.16,31.27 -100.594,58.082 c -14.699,8.48 -26.614,31.25 -26.614,50.847 v 387.202 c 0,11.03 3.778,18.71 9.696,21.8 1.914,0.99 4.051,1.51 6.355,1.51 3.239,0 6.809,-1.02 10.563,-3.19 L 860.773,991.621 c 14.7,-8.492 26.618,-31.262 26.618,-50.859 V 553.57 c 0,-10.461 -3.391,-17.898 -8.786,-21.281 -2.136,-1.34 -4.585,-2.039 -7.265,-2.039 M 577.48,1102.69 V 735.621 c 0,-18.582 11.297,-40.172 25.231,-48.223 L 846.051,546.91 c 3.562,-2.051 6.945,-3.019 10.019,-3.019 2.575,0 4.922,0.679 6.969,1.98 l 6.84,4.027 h -0.004 c 5.645,2.911 9.246,10.204 9.246,20.684 V 937.66 c 0,18.578 -11.297,40.16 -25.23,48.211 l -243.34,140.489 c -3.539,2.04 -6.906,3.01 -9.957,3.01 -2.59,0 -4.957,-0.7 -7.016,-2.01 v 0.05 l -6.98,-4.09 c -5.571,-2.96 -9.118,-10.22 -9.118,-20.63"
         id="path9898" />
    </clipPath>
    <linearGradient
       id="fb"
       x1="0"
       x2="1"
       y1="0"
       y2="0"
       gradientTransform="matrix(0,458.173,343.63,-198.395,732.435,607.54)"
       gradientUnits="userSpaceOnUse"
       spreadMethod="pad">
      <stop
         offset="0"
         stop-color="#5659b1"
         stop-opacity="1"
         id="stop9901" />
      <stop
         offset="1"
         stop-color="#c1b9e2"
         stop-opacity="1"
         id="stop9903" />
    </linearGradient>
    <clipPath
       id="eY"
       clipPathUnits="userSpaceOnUse">
      <path
         inkscape:connector-curvature="0"
         d="m 878.605,532.289 c 5.395,3.383 8.786,10.82 8.786,21.281 v 387.192 c 0,19.597 -11.918,42.367 -26.618,50.859 L 604.094,1139.81 c -3.754,2.17 -7.324,3.19 -10.563,3.19 -2.304,0 -4.441,-0.52 -6.355,-1.51 l 23.433,13.52 v -0.05 c 2.172,1.39 4.668,2.12 7.403,2.12 3.218,0 6.765,-1.02 10.5,-3.17 l 42.394,-24.48 54.192,-31.29 10.004,-5.77 39.722,-22.93 55.281,-31.92 32.09,-18.53 22.996,-13.27 c 14.7,-8.49 26.614,-31.259 26.614,-50.861 V 567.66 c 0,-3.012 -0.282,-5.769 -0.813,-8.262 -1.418,-6.648 -4.609,-11.316 -8.937,-13.558 l -23.45,-13.551"
         id="path9888" />
    </clipPath>
    <linearGradient
       id="eZ"
       x1="0"
       x2="1"
       y1="0"
       y2="0"
       gradientTransform="matrix(0,625.067,625.067,0,749.131,532.01)"
       gradientUnits="userSpaceOnUse"
       spreadMethod="pad">
      <stop
         offset="0"
         stop-color="#c5bae3"
         stop-opacity="1"
         id="stop9891" />
      <stop
         offset="0.697"
         stop-color="#ede9f6"
         stop-opacity="1"
         id="stop9893" />
      <stop
         offset="1"
         stop-color="#ede9f6"
         stop-opacity="1"
         id="stop9895" />
    </linearGradient>
    <clipPath
       id="eW"
       clipPathUnits="userSpaceOnUse">
      <path
         inkscape:connector-curvature="0"
         d="m 993.758,469.672 c -31.754,0 -60.512,7.668 -85.176,22.359 -1.105,0.66 -2.191,1.321 -3.281,2.008 -0.571,0.359 -1.145,0.731 -1.711,1.102 a 150.079,150.079 0 0 0 -11.152,7.98 c -10.375,8.141 -19.848,17.719 -28.309,28.66 2.531,-1.031 4.953,-1.531 7.211,-1.531 2.68,0 5.129,0.699 7.265,2.039 l 23.45,13.551 c 4.328,2.242 7.519,6.91 8.937,13.558 26.223,-25.628 60.551,-39.25 100.198,-39.25 37.63,0 80.05,12.262 124.9,38.161 154.52,89.203 280.23,306.929 280.23,485.341 v 226.73 c 0,126.62 -63.33,199.94 -155.32,199.94 -7.57,0 -15.34,-0.5 -23.28,-1.5 -0.03,-0.01 -0.06,-0.01 -0.09,-0.02 -1.95,-0.24 -3.91,-0.52 -5.88,-0.83 -17.74,-2.78 -36.29,-8.05 -55.48,-15.93 -13.12,-5.39 -26.54,-12.01 -40.18,-19.88 -134.15,-77.46 -246.594,-251.8 -273.895,-413.17 l -32.09,18.53 c 39.418,174.77 161.68,356.47 305.985,439.79 51.11,29.5 99.47,43.48 142.34,43.48 28.01,0 53.69,-5.97 76.29,-17.46 61.97,-31.51 100.7,-104.62 100.7,-210.37 v -88.91 l -39.1,-22.57 v -19.01 l 39.1,22.57 v -118.81 c 0,-178.73 -110.7,-392.07 -257.09,-510.109 -3.93,-3.172 -7.9,-6.281 -11.88,-9.312 -16.41,-12.489 -33.23,-23.758 -50.36,-33.649 -51.1,-29.512 -99.46,-43.488 -142.332,-43.488"
         id="path9880" />
    </clipPath>
    <linearGradient
       id="eX"
       x1="0"
       x2="1"
       y1="0"
       y2="0"
       gradientTransform="matrix(0,964.149,723.112,417.489,1136.09,513.16)"
       gradientUnits="userSpaceOnUse"
       spreadMethod="pad">
      <stop
         offset="0"
         stop-color="#c5bae3"
         stop-opacity="1"
         id="stop9883" />
      <stop
         offset="1"
         stop-color="#ede9f6"
         stop-opacity="1"
         id="stop9885" />
    </linearGradient>
    <clipPath
       id="eU"
       clipPathUnits="userSpaceOnUse">
      <path
         inkscape:connector-curvature="0"
         d="m 1011.19,520.148 c -39.647,0 -73.975,13.622 -100.198,39.25 0.531,2.493 0.813,5.25 0.813,8.262 v 53.488 c 19.789,5.961 40.383,14.813 61.547,26.731 a 0.058,0.058 0 0 0 0.039,0.019 c 0.148,0.094 0.3,0.172 0.449,0.262 0.043,0.02 0.082,0.039 0.125,0.07 0.121,0.071 0.246,0.141 0.371,0.211 0.059,0.028 0.117,0.071 0.18,0.098 0.101,0.063 0.211,0.121 0.312,0.18 0.078,0.043 0.152,0.09 0.231,0.133 0.086,0.046 0.175,0.097 0.265,0.148 0.086,0.051 0.176,0.102 0.266,0.148 0.078,0.051 0.152,0.094 0.23,0.141 0.332,0.191 0.664,0.383 0.996,0.57 154.514,89.211 280.224,306.942 280.224,485.351 v 227.8 c 0,0.08 -0.01,0.16 -0.01,0.24 v 1.15 c -0.27,40.58 -7.1,75.61 -19.31,104.42 7.94,1 15.71,1.5 23.28,1.5 91.99,0 155.32,-73.32 155.32,-199.94 v -226.73 c 0,-178.412 -125.71,-396.138 -280.23,-485.341 -44.85,-25.899 -87.27,-38.161 -124.9,-38.161 m 245.85,753.282 v -19.01 l 159.27,-91.95 v 19.01 l -159.27,91.95"
         id="path9872" />
    </clipPath>
    <linearGradient
       id="eV"
       x1="0"
       x2="1"
       y1="0"
       y2="0"
       gradientTransform="matrix(0,1000.83,1000.83,0,1148.55,505.34)"
       gradientUnits="userSpaceOnUse"
       spreadMethod="pad">
      <stop
         offset="0"
         stop-color="#c1b9e2"
         stop-opacity="1"
         id="stop9875" />
      <stop
         offset="1"
         stop-color="#5659b1"
         stop-opacity="1"
         id="stop9877" />
    </linearGradient>
    <clipPath
       id="eS"
       clipPathUnits="userSpaceOnUse">
      <path
         inkscape:connector-curvature="0"
         d="m 905.301,494.039 -105.77,60.699 c -15.308,9.782 -28.965,22.352 -40.683,37.551 l 10.242,-5.91 c 11.668,-15.078 25.254,-27.559 40.473,-37.277 l 94.027,-53.961 c 0.566,-0.371 1.14,-0.743 1.711,-1.102 m -170.199,598.331 -10.004,5.77 c 39.539,174.62 161.703,356.06 305.872,439.3 51.09,29.49 99.4,43.45 142.25,43.45 30.42,0 58.08,-7.03 82.04,-20.53 l 0.09,0.02 1.17,-0.68 0.27,-0.16 7.41,-4.27 c -23.72,13.12 -51.03,19.95 -81.01,19.95 -42.83,0 -91.12,-13.95 -142.18,-43.43 -144.217,-83.26 -266.408,-264.75 -305.908,-439.42"
         id="path9864" />
    </clipPath>
    <linearGradient
       id="eT"
       x1="0"
       x2="1"
       y1="0"
       y2="0"
       gradientTransform="matrix(0,1086.91,1086.91,0,987.926,493.97)"
       gradientUnits="userSpaceOnUse"
       spreadMethod="pad">
      <stop
         offset="0"
         stop-color="#c5bae3"
         stop-opacity="1"
         id="stop9867" />
      <stop
         offset="1"
         stop-color="#ede9f6"
         stop-opacity="1"
         id="stop9869" />
    </linearGradient>
    <clipPath
       id="eQ"
       clipPathUnits="userSpaceOnUse">
      <path
         inkscape:connector-curvature="0"
         d="m 903.59,495.141 -94.027,53.961 c -15.219,9.718 -28.805,22.199 -40.473,37.277 l 42.922,-24.777 c 12.511,-15.352 27.093,-27.821 43.433,-37.262 l 36.993,-21.219 c 3.609,-2.84 7.328,-5.5 11.152,-7.98 m -128.766,574.299 -39.722,22.93 c 39.5,174.67 161.691,356.16 305.908,439.42 51.06,29.48 99.35,43.43 142.18,43.43 29.98,0 57.29,-6.83 81.01,-19.95 l 21.84,-12.58 c -19.16,7.5 -40.23,11.38 -62.81,11.38 -42.81,0 -91.06,-13.92 -142.09,-43.39 -144.718,-83.55 -267.257,-266.02 -306.316,-441.24"
         id="path9856" />
    </clipPath>
    <linearGradient
       id="eR"
       x1="0"
       x2="1"
       y1="0"
       y2="0"
       gradientTransform="matrix(0,1118.34,1118.34,0,1006.13,493.97)"
       gradientUnits="userSpaceOnUse"
       spreadMethod="pad">
      <stop
         offset="0"
         stop-color="#4e4aa8"
         stop-opacity="1"
         id="stop9859" />
      <stop
         offset="1"
         stop-color="#7e71c0"
         stop-opacity="1"
         id="stop9861" />
    </linearGradient>
    <clipPath
       id="eO"
       clipPathUnits="userSpaceOnUse">
      <path
         inkscape:connector-curvature="0"
         d="m 905.301,494.039 -10.653,6.121 -143.527,82.36 c -17.66,10.199 -33.273,23.949 -46.433,41.039 l 54.16,-31.27 c 11.718,-15.199 25.375,-27.769 40.683,-37.551 l 105.77,-60.699 m -12.863,9.082 -36.993,21.219 c -16.34,9.441 -30.922,21.91 -43.433,37.262 l 48.761,-28.161 a 29.352,29.352 0 0 1 3.356,-1.66 c 8.461,-10.941 17.934,-20.519 28.309,-28.66 m 80.914,144.758 a 0.05,0.05 0 0 0 0.039,0.019 0.058,0.058 0 0 1 -0.039,-0.019 m 0.488,0.281 c 0.039,0.02 0.086,0.051 0.125,0.07 a 0.714,0.714 0 0 0 -0.125,-0.07 m 0.496,0.281 c 0.059,0.028 0.121,0.071 0.18,0.098 -0.063,-0.027 -0.121,-0.07 -0.18,-0.098 m 0.492,0.278 c 0.078,0.043 0.152,0.082 0.231,0.133 -0.079,-0.043 -0.153,-0.09 -0.231,-0.133 m 0.992,0.57 c 0.332,0.191 0.664,0.383 0.996,0.57 154.514,89.211 280.224,306.942 280.224,485.351 v 226.72 -226.72 c 0,-178.409 -125.71,-396.14 -280.224,-485.351 -0.332,-0.187 -0.664,-0.379 -0.996,-0.57 m -145.715,388.231 -55.281,31.92 c 39.059,175.22 161.598,357.69 306.316,441.24 51.03,29.47 99.28,43.39 142.09,43.39 22.58,0 43.65,-3.88 62.81,-11.38 l -21.84,12.58 -7.41,4.27 -0.27,0.16 -1.17,0.68 -0.09,-0.02 c -23.96,13.5 -51.62,20.53 -82.04,20.53 -42.85,0 -91.16,-13.96 -142.25,-43.45 -144.169,-83.24 -266.333,-264.68 -305.872,-439.3 l -54.192,31.29 c 39.504,174.67 161.696,356.17 305.91,439.43 51.084,29.5 99.394,43.45 142.254,43.45 30.41,0 58.08,-7.03 82.03,-20.53 l 0.09,0.02 1.18,-0.68 0.26,-0.15 152.09,-87.64 c -22.6,11.49 -48.28,17.46 -76.29,17.46 -42.87,0 -91.23,-13.98 -142.34,-43.48 -144.305,-83.32 -266.567,-265.02 -305.985,-439.79 m 426.935,324.95 v 0 m 0,0.54 c 0,0.08 -0.01,0.16 -0.01,0.24 0,-0.08 0.01,-0.16 0.01,-0.24 m -0.01,0.52 v 0 m 0,0.49 v 0 m 0,0.38 c -0.27,40.61 -7.17,75.58 -19.4,104.4 0.03,0.01 0.06,0.01 0.09,0.02 12.21,-28.81 19.04,-63.84 19.31,-104.42 m -80.76,87.64 c 19.19,7.88 37.74,13.15 55.48,15.93 l -55.48,-15.93"
         id="path9848" />
    </clipPath>
    <linearGradient
       id="eP"
       x1="0"
       x2="1"
       y1="0"
       y2="0"
       gradientTransform="matrix(0,1118.34,1118.34,0,1006.13,493.97)"
       gradientUnits="userSpaceOnUse"
       spreadMethod="pad">
      <stop
         offset="0"
         stop-color="#5659b1"
         stop-opacity="1"
         id="stop9851" />
      <stop
         offset="1"
         stop-color="#c1b9e2"
         stop-opacity="1"
         id="stop9853" />
    </linearGradient>
  </defs>
  <sodipodi:namedview
     id="base"
     pagecolor="#ffffff"
     bordercolor="#666666"
     borderopacity="1.0"
     inkscape:pageopacity="0.0"
     inkscape:pageshadow="2"
     inkscape:zoom="2.8"
     inkscape:cx="169.11364"
     inkscape:cy="157.79088"
     inkscape:document-units="mm"
     inkscape:current-layer="layer1"
     showgrid="false"
     inkscape:window-width="1616"
     inkscape:window-height="1282"
     inkscape:window-x="2187"
     inkscape:window-y="764"
     inkscape:window-maximized="0" />
  <metadata
     id="metadata1991">
    <rdf:RDF>
      <cc:Work
         rdf:about="">
        <dc:format>image/svg+xml</dc:format>
        <dc:type
           rdf:resource="http://purl.org/dc/dcmitype/StillImage" />
        <dc:title />
      </cc:Work>
    </rdf:RDF>
  </metadata>
  <g
     inkscape:label="Layer 1"
     inkscape:groupmode="layer"
     id="layer1"
     transform="translate(0,-237)">
    <g
       clip-path="url(#eO)"
       transform="matrix(-0.03528,0,0,-0.03528,66.097736,303.11009)"
       id="g11246">
      <path
         d="m 905.301,494.039 -10.653,6.121 -143.527,82.36 c -17.66,10.199 -33.273,23.949 -46.433,41.039 l 54.16,-31.27 c 11.718,-15.199 25.375,-27.769 40.683,-37.551 l 105.77,-60.699 m -12.863,9.082 -36.993,21.219 c -16.34,9.441 -30.922,21.91 -43.433,37.262 l 48.761,-28.161 a 29.352,29.352 0 0 1 3.356,-1.66 c 8.461,-10.941 17.934,-20.519 28.309,-28.66 m 80.914,144.758 a 0.05,0.05 0 0 0 0.039,0.019 0.058,0.058 0 0 1 -0.039,-0.019 m 0.488,0.281 c 0.039,0.02 0.086,0.051 0.125,0.07 a 0.714,0.714 0 0 0 -0.125,-0.07 m 0.496,0.281 c 0.059,0.028 0.121,0.071 0.18,0.098 -0.063,-0.027 -0.121,-0.07 -0.18,-0.098 m 0.492,0.278 c 0.078,0.043 0.152,0.082 0.231,0.133 -0.079,-0.043 -0.153,-0.09 -0.231,-0.133 m 0.992,0.57 c 0.332,0.191 0.664,0.383 0.996,0.57 154.514,89.211 280.224,306.942 280.224,485.351 v 226.72 -226.72 c 0,-178.409 -125.71,-396.14 -280.224,-485.351 -0.332,-0.187 -0.664,-0.379 -0.996,-0.57 m -145.715,388.231 -55.281,31.92 c 39.059,175.22 161.598,357.69 306.316,441.24 51.03,29.47 99.28,43.39 142.09,43.39 22.58,0 43.65,-3.88 62.81,-11.38 l -21.84,12.58 -7.41,4.27 -0.27,0.16 -1.17,0.68 -0.09,-0.02 c -23.96,13.5 -51.62,20.53 -82.04,20.53 -42.85,0 -91.16,-13.96 -142.25,-43.45 -144.169,-83.24 -266.333,-264.68 -305.872,-439.3 l -54.192,31.29 c 39.504,174.67 161.696,356.17 305.91,439.43 51.084,29.5 99.394,43.45 142.254,43.45 30.41,0 58.08,-7.03 82.03,-20.53 l 0.09,0.02 1.18,-0.68 0.26,-0.15 152.09,-87.64 c -22.6,11.49 -48.28,17.46 -76.29,17.46 -42.87,0 -91.23,-13.98 -142.34,-43.48 -144.305,-83.32 -266.567,-265.02 -305.985,-439.79 m 426.935,324.95 v 0 m 0,0.54 c 0,0.08 -0.01,0.16 -0.01,0.24 0,-0.08 0.01,-0.16 0.01,-0.24 m -0.01,0.52 v 0 m 0,0.49 v 0 m 0,0.38 c -0.27,40.61 -7.17,75.58 -19.4,104.4 0.03,0.01 0.06,0.01 0.09,0.02 12.21,-28.81 19.04,-63.84 19.31,-104.42 m -80.76,87.64 c 19.19,7.88 37.74,13.15 55.48,15.93 l -55.48,-15.93"
         id="path11244"
         style="fill:url(#eP);fill-opacity:1;fill-rule:nonzero;stroke:none"
         inkscape:connector-curvature="0" />
    </g>
    <g
       clip-path="url(#eQ)"
       transform="matrix(-0.03528,0,0,-0.03528,66.097736,303.11009)"
       id="g11250">
      <path
         d="m 903.59,495.141 -94.027,53.961 c -15.219,9.718 -28.805,22.199 -40.473,37.277 l 42.922,-24.777 c 12.511,-15.352 27.093,-27.821 43.433,-37.262 l 36.993,-21.219 c 3.609,-2.84 7.328,-5.5 11.152,-7.98 m -128.766,574.299 -39.722,22.93 c 39.5,174.67 161.691,356.16 305.908,439.42 51.06,29.48 99.35,43.43 142.18,43.43 29.98,0 57.29,-6.83 81.01,-19.95 l 21.84,-12.58 c -19.16,7.5 -40.23,11.38 -62.81,11.38 -42.81,0 -91.06,-13.92 -142.09,-43.39 -144.718,-83.55 -267.257,-266.02 -306.316,-441.24"
         id="path11248"
         style="fill:url(#eR);fill-opacity:1;fill-rule:nonzero;stroke:none"
         inkscape:connector-curvature="0" />
    </g>
    <g
       clip-path="url(#eS)"
       transform="matrix(-0.03528,0,0,-0.03528,66.097736,303.11009)"
       id="g11254">
      <path
         d="m 905.301,494.039 -105.77,60.699 c -15.308,9.782 -28.965,22.352 -40.683,37.551 l 10.242,-5.91 c 11.668,-15.078 25.254,-27.559 40.473,-37.277 l 94.027,-53.961 c 0.566,-0.371 1.14,-0.743 1.711,-1.102 m -170.199,598.331 -10.004,5.77 c 39.539,174.62 161.703,356.06 305.872,439.3 51.09,29.49 99.4,43.45 142.25,43.45 30.42,0 58.08,-7.03 82.04,-20.53 l 0.09,0.02 1.17,-0.68 0.27,-0.16 7.41,-4.27 c -23.72,13.12 -51.03,19.95 -81.01,19.95 -42.83,0 -91.12,-13.95 -142.18,-43.43 -144.217,-83.26 -266.408,-264.75 -305.908,-439.42"
         id="path11252"
         style="fill:url(#eT);fill-opacity:1;fill-rule:nonzero;stroke:none"
         inkscape:connector-curvature="0" />
    </g>
    <g
       clip-path="url(#eU)"
       transform="matrix(-0.03528,0,0,-0.03528,66.097736,303.11009)"
       id="g11258">
      <path
         d="m 1011.19,520.148 c -39.647,0 -73.975,13.622 -100.198,39.25 0.531,2.493 0.813,5.25 0.813,8.262 v 53.488 c 19.789,5.961 40.383,14.813 61.547,26.731 a 0.058,0.058 0 0 0 0.039,0.019 c 0.148,0.094 0.3,0.172 0.449,0.262 0.043,0.02 0.082,0.039 0.125,0.07 0.121,0.071 0.246,0.141 0.371,0.211 0.059,0.028 0.117,0.071 0.18,0.098 0.101,0.063 0.211,0.121 0.312,0.18 0.078,0.043 0.152,0.09 0.231,0.133 0.086,0.046 0.175,0.097 0.265,0.148 0.086,0.051 0.176,0.102 0.266,0.148 0.078,0.051 0.152,0.094 0.23,0.141 0.332,0.191 0.664,0.383 0.996,0.57 154.514,89.211 280.224,306.942 280.224,485.351 v 227.8 c 0,0.08 -0.01,0.16 -0.01,0.24 v 1.15 c -0.27,40.58 -7.1,75.61 -19.31,104.42 7.94,1 15.71,1.5 23.28,1.5 91.99,0 155.32,-73.32 155.32,-199.94 v -226.73 c 0,-178.412 -125.71,-396.138 -280.23,-485.341 -44.85,-25.899 -87.27,-38.161 -124.9,-38.161 m 245.85,753.282 v -19.01 l 159.27,-91.95 v 19.01 l -159.27,91.95"
         id="path11256"
         style="fill:url(#eV);fill-opacity:1;fill-rule:nonzero;stroke:none"
         inkscape:connector-curvature="0" />
    </g>
    <g
       clip-path="url(#eW)"
       transform="matrix(-0.03528,0,0,-0.03528,66.097736,303.11009)"
       id="g11262"
       style="stroke:#999999;stroke-width:7.49952759;stroke-miterlimit:4;stroke-dasharray:none">
      <path
         d="m 993.758,469.672 c -31.754,0 -60.512,7.668 -85.176,22.359 -1.105,0.66 -2.191,1.321 -3.281,2.008 -0.571,0.359 -1.145,0.731 -1.711,1.102 a 150.079,150.079 0 0 0 -11.152,7.98 c -10.375,8.141 -19.848,17.719 -28.309,28.66 2.531,-1.031 4.953,-1.531 7.211,-1.531 2.68,0 5.129,0.699 7.265,2.039 l 23.45,13.551 c 4.328,2.242 7.519,6.91 8.937,13.558 26.223,-25.628 60.551,-39.25 100.198,-39.25 37.63,0 80.05,12.262 124.9,38.161 154.52,89.203 280.23,306.929 280.23,485.341 v 226.73 c 0,126.62 -63.33,199.94 -155.32,199.94 -7.57,0 -15.34,-0.5 -23.28,-1.5 -0.03,-0.01 -0.06,-0.01 -0.09,-0.02 -1.95,-0.24 -3.91,-0.52 -5.88,-0.83 -17.74,-2.78 -36.29,-8.05 -55.48,-15.93 -13.12,-5.39 -26.54,-12.01 -40.18,-19.88 -134.15,-77.46 -246.594,-251.8 -273.895,-413.17 l -32.09,18.53 c 39.418,174.77 161.68,356.47 305.985,439.79 51.11,29.5 99.47,43.48 142.34,43.48 28.01,0 53.69,-5.97 76.29,-17.46 61.97,-31.51 100.7,-104.62 100.7,-210.37 v -88.91 l -39.1,-22.57 v -19.01 l 39.1,22.57 v -118.81 c 0,-178.73 -110.7,-392.07 -257.09,-510.109 -3.93,-3.172 -7.9,-6.281 -11.88,-9.312 -16.41,-12.489 -33.23,-23.758 -50.36,-33.649 -51.1,-29.512 -99.46,-43.488 -142.332,-43.488"
         id="path11260"
         style="fill:url(#eX);fill-opacity:1;fill-rule:nonzero;stroke:#999999;stroke-width:7.49952759;stroke-miterlimit:4;stroke-dasharray:none"
         inkscape:connector-curvature="0" />
    </g>
    <g
       clip-path="url(#eY)"
       transform="matrix(-0.03528,0,0,-0.03528,66.097736,303.11009)"
       id="g11266">
      <path
         d="m 878.605,532.289 c 5.395,3.383 8.786,10.82 8.786,21.281 v 387.192 c 0,19.597 -11.918,42.367 -26.618,50.859 L 604.094,1139.81 c -3.754,2.17 -7.324,3.19 -10.563,3.19 -2.304,0 -4.441,-0.52 -6.355,-1.51 l 23.433,13.52 v -0.05 c 2.172,1.39 4.668,2.12 7.403,2.12 3.218,0 6.765,-1.02 10.5,-3.17 l 42.394,-24.48 54.192,-31.29 10.004,-5.77 39.722,-22.93 55.281,-31.92 32.09,-18.53 22.996,-13.27 c 14.7,-8.49 26.614,-31.259 26.614,-50.861 V 567.66 c 0,-3.012 -0.282,-5.769 -0.813,-8.262 -1.418,-6.648 -4.609,-11.316 -8.937,-13.558 l -23.45,-13.551"
         id="path11264"
         style="fill:url(#eZ);fill-opacity:1;fill-rule:nonzero;stroke:none"
         inkscape:connector-curvature="0" />
    </g>
    <g
       clip-path="url(#fa)"
       transform="matrix(-0.03528,0,0,-0.03528,66.097736,303.11009)"
       id="g11270">
      <path
         d="m 871.34,530.25 c -2.258,0 -4.68,0.5 -7.211,1.531 a 29.352,29.352 0 0 0 -3.356,1.66 l -48.761,28.161 -42.922,24.777 -10.242,5.91 -54.16,31.27 -100.594,58.082 c -14.699,8.48 -26.614,31.25 -26.614,50.847 v 387.202 c 0,11.03 3.778,18.71 9.696,21.8 1.914,0.99 4.051,1.51 6.355,1.51 3.239,0 6.809,-1.02 10.563,-3.19 L 860.773,991.621 c 14.7,-8.492 26.618,-31.262 26.618,-50.859 V 553.57 c 0,-10.461 -3.391,-17.898 -8.786,-21.281 -2.136,-1.34 -4.585,-2.039 -7.265,-2.039 M 577.48,1102.69 V 735.621 c 0,-18.582 11.297,-40.172 25.231,-48.223 L 846.051,546.91 c 3.562,-2.051 6.945,-3.019 10.019,-3.019 2.575,0 4.922,0.679 6.969,1.98 l 6.84,4.027 h -0.004 c 5.645,2.911 9.246,10.204 9.246,20.684 V 937.66 c 0,18.578 -11.297,40.16 -25.23,48.211 l -243.34,140.489 c -3.539,2.04 -6.906,3.01 -9.957,3.01 -2.59,0 -4.957,-0.7 -7.016,-2.01 v 0.05 l -6.98,-4.09 c -5.571,-2.96 -9.118,-10.22 -9.118,-20.63"
         id="path11268"
         style="fill:url(#fb);fill-opacity:1;fill-rule:nonzero;stroke:none"
         inkscape:connector-curvature="0" />
    </g>
    <g
       clip-path="url(#fc)"
       transform="matrix(-0.03528,0,0,-0.03528,66.097736,303.11009)"
       id="g11274">
      <path
         d="m 863.039,545.871 c 5.063,3.231 8.242,10.258 8.242,20.117 v 367.071 c 0,18.582 -11.293,40.171 -25.23,48.211 l -243.34,140.49 -0.309,0.18 c -0.019,0.01 -0.039,0.02 -0.062,0.04 -0.039,0.02 -0.078,0.04 -0.121,0.06 -3.364,1.86 -6.571,2.75 -9.489,2.75 h -0.07 c -2.203,0 -4.238,-0.51 -6.062,-1.47 l 6.98,4.09 v -0.05 c 2.059,1.31 4.426,2.01 7.016,2.01 3.051,0 6.418,-0.97 9.957,-3.01 l 243.34,-140.489 c 13.933,-8.051 25.23,-29.633 25.23,-48.211 V 570.582 c 0,-10.48 -3.601,-17.773 -9.246,-20.684 h 0.004 l -6.84,-4.027"
         id="path11272"
         style="fill:url(#fd);fill-opacity:1;fill-rule:nonzero;stroke:none"
         inkscape:connector-curvature="0" />
    </g>
    <path
       d="m 36.250736,283.81709 8.584,-4.956 c 0.492,-0.284 0.89,-1.046 0.89,-1.702 v -12.949 c 0,-0.655 -0.398,-0.957 -0.89,-0.673 l -8.584,4.956 c -0.492,0.284 -0.89,1.046 -0.89,1.701 v 12.95 c 0,0.655 0.398,0.956 0.89,0.673"
       id="path11276"
       inkscape:connector-curvature="0"
       style="fill:#262864;fill-opacity:1;fill-rule:nonzero;stroke:none;stroke-width:0.035" />
    <path
       d="m 36.387736,282.84209 c 0.097,0 0.204,-0.031 0.316,-0.096 l 7.678,-4.433 c 0.44,-0.254 0.796,-0.935 0.796,-1.521 v -0.295 l -9.27,-4.116 v 9.763 c 0,0.437 0.197,0.698 0.48,0.698"
       id="path11278"
       inkscape:connector-curvature="0"
       style="fill:#322f85;fill-opacity:1;fill-rule:nonzero;stroke:none;stroke-width:0.035" />
    <g
       clip-path="url(#fe)"
       transform="matrix(-0.03528,0,0,-0.03528,66.097736,303.11009)"
       id="g11282">
      <path
         d="m 899.184,796.68 0.89,0.519 c 1.449,0.832 2.758,0.883 3.793,0.332 l -0.004,0.051 3.348,-1.934 -1.637,-0.128 c 0.309,-0.782 0.477,-1.731 0.477,-2.84 v -53.891 c 0,-4.398 -2.676,-9.519 -5.977,-11.418 l -0.89,-0.519 -1.219,-0.532 0.855,-1.82 -3.566,2.051 0.062,0.008 c -1.281,0.722 -2.109,2.39 -2.109,4.812 v 53.899 c 0,4.402 2.676,9.511 5.977,11.41"
         id="path11280"
         style="fill:url(#ff);fill-opacity:1;fill-rule:nonzero;stroke:none"
         inkscape:connector-curvature="0" />
    </g>
    <path
       d="m 34.256736,277.53809 -0.032,-0.019 c -0.116,-0.067 -0.21,-0.247 -0.21,-0.403 v -1.9 c 0,-0.156 0.094,-0.228 0.21,-0.16 l 0.032,0.018 c 0.116,0.067 0.21,0.247 0.21,0.403 v 1.901 c 0,0.155 -0.094,0.227 -0.21,0.16"
       id="path11284"
       inkscape:connector-curvature="0"
       style="fill:#ede9f6;fill-opacity:1;fill-rule:nonzero;stroke:none;stroke-width:0.035" />
    <g
       clip-path="url(#fg)"
       transform="matrix(-0.03528,0,0,-0.03528,66.097736,303.11009)"
       id="g11288">
      <path
         d="m 577.48,1102.69 c 0,10.41 3.547,17.67 9.118,20.63 l -0.008,-0.01 c -5.567,-2.96 -9.11,-10.21 -9.11,-20.62"
         id="path11286"
         style="fill:url(#fh);fill-opacity:1;fill-rule:nonzero;stroke:none"
         inkscape:connector-curvature="0" />
    </g>
    <g
       clip-path="url(#fi)"
       transform="matrix(-0.03528,0,0,-0.03528,66.097736,303.11009)"
       id="g11292">
      <path
         d="m 602.711,1121.76 -0.309,0.18 0.309,-0.18 m -0.371,0.22 c -0.039,0.02 -0.078,0.04 -0.121,0.06 0.043,-0.02 0.082,-0.04 0.121,-0.06 m -15.75,1.33 0.008,0.01 c 1.824,0.96 3.859,1.47 6.062,1.47 -2.203,0 -4.246,-0.51 -6.07,-1.48 m 6.14,1.48 h -0.035 0.035"
         id="path11290"
         style="fill:url(#fj);fill-opacity:1;fill-rule:nonzero;stroke:none"
         inkscape:connector-curvature="0" />
    </g>
    <path
       d="m 45.724736,276.74009 v -12.53 c 0,-0.367 -0.125,-0.623 -0.321,-0.727 a 0.45200001,0.45200001 0 0 0 -0.214,-0.053 h -0.001 -10e-4 a 0.69800002,0.69800002 0 0 0 -0.335,0.097 l -0.004,0.002 -0.002,10e-4 -0.01,0.006 -8.585,4.957 c -0.492,0.283 -0.89,1.045 -0.89,1.7 v 1.944 l 0.547,0.243 v -1.82 c 0,-0.586 0.356,-1.266 0.796,-1.52 l 7.67823,-4.43302 a 0.63700001,0.63700001 0 0 1 0.316,-0.096 c 0.282,0 0.48,0.261 0.48,0.698 v 11.287 l 0.547,0.243"
       id="path11294"
       inkscape:connector-curvature="0"
       style="fill:#322f85;fill-opacity:1;fill-rule:nonzero;stroke:none;stroke-width:0.035" />
    <path
       d="m 45.177736,276.49709 v -11.288 c 0,-0.436 -0.198,-0.697 -0.48,-0.697 a 0.63700001,0.63700001 0 0 0 -0.316,0.096 l -7.678,4.432 c -0.44,0.255 -0.796,0.935 -0.796,1.522 v 1.819 l 9.27,4.116"
       id="path11296"
       inkscape:connector-curvature="0"
       style="fill:#393293;fill-opacity:1;fill-rule:nonzero;stroke:none;stroke-width:0.035" />
    <g
       clip-path="url(#fk)"
       transform="matrix(-0.03528,0,0,-0.03528,66.097736,303.11009)"
       id="g11300">
      <path
         d="m 1416.31,1162.47 -159.27,91.95 v 19.01 l 159.27,-91.95 v -19.01"
         id="path11298"
         style="fill:url(#fl);fill-opacity:1;fill-rule:nonzero;stroke:none"
         inkscape:connector-curvature="0" />
    </g>
    <g
       clip-path="url(#fm)"
       transform="matrix(-0.03528,0,0,-0.03528,66.097736,303.11009)"
       id="g11304">
      <path
         d="m 1416.32,1162.47 v 19.01 l 39.1,22.57 v -19.01 l -39.1,-22.57"
         id="path11302"
         style="fill:url(#fn);fill-opacity:1;fill-rule:nonzero;stroke:none"
         inkscape:connector-curvature="0" />
    </g>
  </g>
</svg>
